<svg width="290" height="85" viewBox="0 0 290 85" fill="none" xmlns="http://www.w3.org/2000/svg">
<path d="M23.9805 81.6143C24.2481 82.1925 24.9343 82.4448 25.5107 82.1807C63.3566 64.8222 103.722 56.0186 145.477 56.0186C186.341 56.0186 225.887 64.4507 263.039 81.0918L264.807 81.8906C265.386 82.154 266.066 81.8996 266.329 81.3252L266.33 81.3223L287.799 34.8359C287.926 34.5582 287.939 34.241 287.837 33.958C287.729 33.6708 287.51 33.4348 287.228 33.3047C242.499 12.8657 194.811 2.5 145.476 2.5C96.7093 2.50007 49.556 12.6225 5.27832 32.5977L3.17188 33.5557C2.88753 33.6898 2.67422 33.9251 2.57227 34.2012C2.46432 34.4955 2.47855 34.8127 2.60352 35.084L2.60449 35.0859L23.9805 81.6143Z" stroke="white" stroke-width="3"/>
<path d="M49.1729 50.361C50.9978 55.3675 48.3799 60.18 43.4652 61.9326L36.2464 64.6019C34.7849 65.1332 28.4326 67.8024 27.6729 65.7191C27.1657 64.3259 26.7282 62.9118 26.2699 61.5433C25.8493 60.2764 25.6273 59.0199 27.0492 58.5003C28.3714 58.0212 28.7386 57.7282 28.2907 56.3949C28.1026 55.8753 27.7184 55.4626 27.5381 54.9743C26.9437 53.3415 26.5361 51.68 25.9287 50.0095C25.7477 49.5225 25.7445 48.973 25.5674 48.486C25.3923 47.9977 25.1573 47.5733 24.8884 47.1592C24.1547 47.3076 23.5017 47.4665 22.8076 47.7191C22.1833 47.9457 21.7783 47.2686 21.5993 46.7816L20.0531 42.5381C19.9268 42.1918 19.7432 41.9027 19.6182 41.5563C19.2373 40.5147 19.5798 39.4014 20.6586 39.0134L29.4997 35.8285C32.0759 34.891 34.0336 34.2139 36.7822 34.9483C39.5778 35.7009 41.5375 37.0759 42.5505 39.8571C43.3617 42.0785 42.4737 45.1657 42.4522 45.2087C42.5297 45.4183 42.947 45.3806 43.126 45.4378C44.4463 45.8207 45.8812 46.0837 46.973 47.0264C48.1006 47.9561 48.6658 48.9704 49.1592 50.3259L49.1729 50.361ZM36.0207 43.7712C35.5135 42.3806 33.1573 42.727 32.0805 43.1202C31.8025 43.2218 31.4855 43.6514 31.589 43.9314C31.9171 44.8311 32.3514 45.7009 32.658 46.6501C33.1124 46.6032 33.5903 46.5082 34.0402 46.3441C35.1202 45.9509 36.5141 45.128 36.0057 43.7361L36.0207 43.7712ZM39.7888 53.0304C39.2419 51.5369 37.0492 51.7869 35.9125 52.2361L35.2875 52.4614C35.4783 53.4223 35.7029 54.3624 36.0805 55.2895L36.4574 56.2166C36.9151 56.2868 37.3722 56.2374 37.8253 56.0707C38.8318 55.7048 40.2413 54.1684 39.8227 53.0213L39.7888 53.0304Z" fill="white"/>
<path d="M69.6762 44.943C69.9894 46.0472 70.1586 47.1891 70.4692 48.2946C70.712 49.1435 71.0961 49.9625 71.3279 50.7816C71.8917 52.7737 71.4848 53.236 69.5258 53.792C68.7068 54.0198 67.837 54.0771 67.0173 54.3076C66.0577 54.5784 65.1456 55.029 64.184 55.3024C61.2654 56.1279 58.3031 56.8076 55.3728 57.5967C54.8754 57.7399 54.4158 58.0251 53.9184 58.1618C53.4223 58.3076 52.7231 58.1538 52.5994 57.5797C52.0043 55.4743 51.3995 53.3389 50.9119 51.2073C50.7192 50.3779 51.5414 50.0316 52.1834 49.8467C53.3194 49.5263 52.1007 46.5628 51.8982 45.8558C51.3097 43.637 50.7563 41.4079 50.1332 39.1956L49.9164 38.568C49.6651 37.6774 48.7934 38.538 48.061 38.3988C46.85 38.206 46.5792 36.9717 46.2784 35.904C46.1358 35.4092 46.1488 34.904 46.0864 34.4196C45.8754 33.4014 45.4555 32.4443 45.128 31.4222C44.7745 30.1787 46.1951 29.6227 47.1651 29.387C48.199 29.0915 49.2921 29.0159 50.3585 28.7112C53.742 27.7555 57.0746 26.6227 60.4555 25.6657C62.5955 25.0602 63.1137 24.7217 63.7979 27.1461C64.3618 29.1396 65.0076 31.1488 65.6078 33.1331C66.0421 34.6644 65.5329 34.7685 64.1788 35.1514C63.3253 35.3935 62.5115 35.9274 61.6586 36.1696C59.5245 36.7764 59.6462 36.1228 59.0681 34.2139C58.5603 34.318 58.003 34.3961 57.4607 34.5133C56.8911 34.6735 56.949 35.1592 57.0798 35.6188L57.9002 38.6566C58.0506 39.1904 58.5317 38.9808 58.9946 38.8441C59.492 38.7034 59.9138 38.4313 60.4112 38.2907C61.4099 38.0107 61.6144 38.1839 61.8754 39.1097C62.1879 40.2152 62.393 41.3493 62.7146 42.4873C63.1378 43.9782 62.393 43.9235 61.2159 44.2555C60.9672 44.3271 60.2686 44.7152 60.3494 45.0029L61.2407 48.2881C61.3299 48.6097 61.9399 48.5889 62.1515 48.5303C63.934 48.029 63.5082 47.8779 63.1209 46.3727C62.9503 45.7659 62.9809 45.0615 63.6593 44.8753C65.0102 44.4899 66.4093 44.1331 67.7654 43.7503C69.2595 43.3284 69.2745 43.5159 69.6879 44.9743L69.6762 44.943Z" fill="white"/>
<path d="M97.6839 46.4115C97.8942 47.4636 97.1025 47.8464 96.2328 48.0235C95.4704 48.1771 94.6846 48.2188 93.9242 48.3698C93.0876 48.5391 92.2764 48.8151 91.4033 48.987C91.0062 49.0677 90.3161 49.2058 90.0186 48.849C87.3675 45.9818 85.0843 42.8542 82.3688 40.0365C82.0439 39.7253 80.6722 37.7709 80.3447 37.836C80.126 37.8802 80.3291 39.086 80.3643 39.2709L80.7927 41.4102C81.0994 43.1224 82.1163 41.7891 82.6534 42.3946C83.3702 43.1537 83.4496 44.5026 83.6384 45.4453C83.8845 46.6771 84.4861 47.8021 84.7296 49C85.0903 50.8151 83.059 50.4662 81.8227 50.7136C80.9516 50.888 80.1521 51.237 79.3292 51.4427C78.5642 51.5925 77.7647 51.5651 76.9985 51.6797C76.0558 51.8698 75.1469 52.2357 74.1742 52.4688C72.7953 52.7474 72.2953 48.1641 72.0844 47.1146C71.9229 46.3151 71.7498 45.4427 71.7061 44.6641C71.6761 44.138 73.5785 44.0222 73.5512 43.3099C73.5512 42.7461 73.4249 42.1302 73.3109 41.5469L71.8291 34.1406C71.5179 32.5808 71.2653 32.2539 69.7041 32.5677C69.3044 32.6472 68.8324 32.5508 68.7464 32.1198C68.3903 30.3386 68.1071 28.5469 67.7438 26.7318C67.6194 26.1133 67.6514 25.5052 67.5212 24.8542C67.2308 23.3998 69.6696 23.3281 70.5804 23.1823C71.7087 22.9584 72.7972 22.5534 73.93 22.362L74.6553 22.2188C76.2588 21.9349 78.8272 25.9128 79.9137 27.0156C81.0413 28.1146 82.0049 29.3542 83.1318 30.4531C83.4496 30.724 84.6989 32.625 84.917 32.586C85.0973 32.5456 85.0322 32.2214 85.0114 32.112L84.3441 28.7735C84.1696 27.9024 83.7393 28.211 83.0531 28.3516C82.2555 28.5104 81.682 28.474 81.5283 27.5235C81.4423 27.0886 81.4996 26.625 81.4104 26.1901C81.2724 25.4974 80.9163 24.8542 80.7444 24.1719C80.5543 23.2292 80.0765 21.2084 81.3825 20.9479C82.9801 20.6289 84.6032 20.4558 86.2028 20.1354C87.583 19.8594 88.8883 19.4115 90.2666 19.1367C91.792 18.8308 92.2542 18.6992 92.5966 20.4037C92.9795 22.3281 93.2223 24.28 93.6051 26.2058C93.7848 27.1107 92.8082 27.4961 92.0426 27.6472C91.8636 27.6876 91.6552 27.763 91.6552 27.9531C92.0511 31.2683 92.7106 34.7604 93.3577 37.9909C93.6259 39.332 94.5556 38.8841 95.4983 38.6953C96.3714 38.5235 96.4495 39.2969 96.5869 39.9896C97.0088 42.0886 97.2549 44.2683 97.6839 46.4115Z" fill="white"/>
<path d="M152.095 19.4093C152.104 20.2973 152.294 21.1827 152.302 22.1085C152.31 22.7739 152.127 23.2934 151.312 23.3012C150.203 23.3052 149.686 23.3132 149.694 24.6072C149.718 27.5681 150.333 30.5252 150.358 33.5577C150.414 40.1098 148.046 44.8663 140.535 44.8885C134.09 44.9431 130.957 41.7817 130.906 35.3416C130.878 31.9028 133.224 29.2192 136.742 29.2283C139.221 29.2062 140.968 30.4145 140.989 32.9666C140.997 33.8911 140.526 35.1567 139.827 35.7557C139.608 35.9405 138.797 36.0551 138.833 36.3155C138.836 36.7596 139.356 36.9028 139.689 36.865C141.429 36.8508 142.295 34.253 142.285 32.8859C142.28 32.1437 142.16 31.4054 142.195 30.6632C142.223 29.9236 142.366 29.184 142.361 28.477C142.353 27.813 142.257 24.74 142.106 24.2635C141.992 24.0434 140.733 23.977 140.436 23.9796C139.289 23.9916 135.299 24.7257 135.285 22.9497L135.236 17.1749C135.222 15.1762 135.555 15.1762 137.554 15.1228C139.59 15.1046 141.625 15.3103 143.661 15.2947L147.992 15.2609C148.768 15.2529 149.541 15.0655 150.358 15.089C151.834 15.077 152.251 15.7088 152.263 17.1111C152.271 17.8885 152.089 18.6307 152.095 19.4093Z" fill="white"/>
<path d="M172.841 37.5628C172.772 38.7112 172.553 39.844 172.481 40.9898C172.429 41.8752 172.523 42.7763 172.471 43.6226C172.347 45.693 171.807 45.9924 169.778 45.87C168.926 45.8179 168.091 45.581 167.242 45.5289C166.242 45.4677 165.231 45.594 164.234 45.5289C161.205 45.344 158.187 45.012 155.156 44.7919C154.637 44.7633 154.114 44.8804 153.594 44.8466C153.079 44.814 152.473 44.4455 152.544 43.857C152.678 41.6773 152.809 39.4585 153.054 37.2867C153.143 36.4377 154.038 36.383 154.705 36.4195C155.889 36.4976 155.71 33.2971 155.755 32.5549C155.932 30.2671 156.144 27.9846 156.286 25.6929L156.289 25.0223C156.343 24.1018 155.238 24.6265 154.591 24.2528C153.51 23.6721 153.666 22.4195 153.731 21.3101C153.76 20.7919 153.942 20.3218 154.044 19.8466C154.18 18.8179 154.096 17.771 154.125 16.6981C154.203 15.4039 155.729 15.3492 156.721 15.4455C157.794 15.5133 158.854 15.7997 159.958 15.8674C163.468 16.0809 166.992 16.1122 170.497 16.3244C172.716 16.4585 173.317 16.3124 173.164 18.8231C173.04 20.8882 172.987 23.0015 172.895 25.0718C172.798 26.6578 172.286 26.5914 170.882 26.5054C169.994 26.456 169.054 26.6929 168.164 26.6408C165.953 26.5028 166.283 25.9325 166.364 23.9325C165.848 23.8648 165.302 23.758 164.747 23.6851C164.153 23.6487 164.053 24.1252 164.027 24.6044L163.795 27.7463C163.765 28.2984 164.285 28.2554 164.765 28.2841C165.283 28.3179 165.773 28.1994 166.291 28.2294C167.321 28.2932 167.455 28.5263 167.398 29.4833C167.33 30.6252 167.149 31.7633 167.076 32.9495C166.984 34.5002 166.295 34.1982 165.078 34.1266C164.816 34.1123 164.032 34.2424 164.015 34.5419L163.772 37.9417C163.75 38.2737 164.335 38.456 164.55 38.4716C166.401 38.5797 166.048 38.2971 166.179 36.7516C166.216 36.1226 166.481 35.4729 167.181 35.512C168.583 35.5966 170.023 35.7242 171.427 35.8075C172.981 35.9039 172.931 36.0862 172.838 37.6005L172.841 37.5628Z" fill="white"/>
<path d="M195.544 49.0276L190.297 48.3388C189.929 48.2972 189.57 48.2086 189.212 48.0875C187.596 47.5758 187.185 39.0159 186.062 37.3414C185.905 37.1331 185.578 37.0485 185.317 37.0159C184.439 36.9 184.389 37.2659 184.287 38.038C184.177 38.9196 183.896 39.9261 185.034 40.0784C186.427 40.2581 185.409 43.1839 185.286 44.1409C185.19 44.8753 185.239 45.6253 185.135 46.3974C185.009 47.3896 184.596 47.6722 183.57 47.5354C182.69 47.4248 181.841 47.0888 180.961 46.9716C178.975 46.7138 176.98 46.5628 174.998 46.3037C173.42 46.0992 174.169 44.3649 174.31 43.3024C174.458 42.1644 174.386 40.9951 174.539 39.8245C174.721 38.43 174.721 37.8727 176.334 38.0784C176.738 38.1344 177.031 35.594 177.08 35.2646C177.429 32.5511 177.601 29.8466 177.989 27.1383C178.164 25.8167 177.709 26.1279 176.679 26.0315C175.729 25.9066 175.273 25.3649 175.401 24.4091C175.583 23.0159 175.989 21.611 176.174 20.2216C176.289 19.3024 176.228 18.3545 176.384 17.4456L176.432 17.081C176.557 16.4209 181.27 17.193 182.112 17.2998C186.409 17.8623 193.64 19.0315 195.744 23.2295C196.755 25.2255 197.425 26.917 197.125 29.2308C196.721 32.3102 195.754 33.7164 193.213 35.4729C193.172 35.5081 193.164 35.5393 193.161 35.5784C193.114 35.9079 194.151 37.7216 194.347 38.1956C194.565 38.8258 194.976 40.5198 195.325 40.9742C195.52 41.2216 196.38 41.1904 196.709 41.2659C198.655 41.5237 197.596 44.1826 197.429 45.4326C197.328 46.2373 197.375 47.0289 197.273 47.7972C197.113 49.0107 196.713 49.18 195.544 49.0276ZM186.968 26.4078C186.748 26.3778 186.38 26.3311 186.242 26.5368C186.104 26.7451 185.733 29.305 185.674 29.7451C185.592 30.3688 185.587 30.6683 186.325 30.7673C187.717 30.9482 189.583 30.6683 189.806 28.9456C190.002 27.4769 188.181 26.5667 186.968 26.4078Z" fill="white"/>
<path d="M219.64 54.1823L214.474 53.0391C214.109 52.9636 213.76 52.8438 213.414 52.6953C211.851 52.0495 212.182 43.4805 211.208 41.7136C211.067 41.4922 210.747 41.3854 210.495 41.3281C209.629 41.1406 209.549 41.4987 209.384 42.2604C209.192 43.1302 208.825 44.1068 209.942 44.3542C211.319 44.6537 210.052 47.4857 209.844 48.4245C209.685 49.1432 209.672 49.9011 209.501 50.6602C209.289 51.6354 208.857 51.8828 207.845 51.6589C206.975 51.4688 206.156 51.0586 205.289 50.8698C203.338 50.4375 201.362 50.1185 199.414 49.6901C197.857 49.3464 198.75 47.6862 198.984 46.638C199.229 45.5143 199.259 44.3516 199.513 43.1914C199.815 41.8177 199.862 41.2591 201.456 41.6094C201.851 41.7018 202.366 39.1953 202.435 38.8698C203.027 36.1979 203.427 33.5182 204.049 30.8568C204.336 29.5495 203.86 29.8242 202.838 29.638C201.901 29.4336 201.497 28.849 201.706 27.9089C202.005 26.5391 202.536 25.1732 202.836 23.8021C203.036 22.8998 203.054 21.9544 203.289 21.0599L203.364 20.6979C203.549 20.0573 208.181 21.2266 209.01 21.4089C213.239 22.3386 220.346 24.1315 222.078 28.4935C222.909 30.5716 223.437 32.3151 222.935 34.5912C222.263 37.6302 221.175 38.9427 218.489 40.474C218.449 40.5026 218.44 40.539 218.429 40.5756C218.356 40.9037 219.229 42.7969 219.388 43.2878C219.547 43.931 219.815 45.655 220.125 46.1407C220.294 46.405 221.156 46.4428 221.471 46.5534C223.388 46.9714 222.107 49.5313 221.836 50.7618C221.659 51.5547 221.638 52.3464 221.468 53.1042C221.208 54.2995 220.797 54.4375 219.64 54.1823ZM213.057 30.9063C212.843 30.8568 212.479 30.776 212.328 30.97C212.166 31.1601 211.575 33.6862 211.478 34.1172C211.341 34.7318 211.315 35.0286 212.039 35.1901C213.414 35.4922 215.294 35.3737 215.672 33.6745C215.987 32.2317 214.25 31.1654 213.057 30.9063Z" fill="white"/>
<path d="M247.218 33.3922C246.781 34.8804 245.845 38.6956 245.088 39.8245C244.516 40.581 243.429 39.5679 242.563 39.8857C241.669 40.163 236.014 44.9377 235.455 45.7763C234.843 46.6747 234.52 47.7789 234.204 48.844C233.513 51.1851 236.58 49.1565 235.631 52.2359C235.32 53.2997 234.242 57.7281 233.112 57.8961C232.309 58.0054 225.799 56.0042 224.556 55.6357C222.143 54.9221 222.5 54.107 223.125 51.8596C223.487 50.6513 223.929 49.3987 224.403 48.1838C224.666 47.5653 225.726 47.7659 226.221 47.9117C226.324 47.9417 226.479 47.9482 226.576 47.8984C226.899 47.4504 226.901 46.9166 227.039 46.4518C227.372 45.3164 227.849 44.2252 228.171 43.1224C228.51 41.9869 227.061 35.9244 226.445 34.7395C226.272 34.4192 225.864 34.4895 225.543 34.3984C224.229 34.0077 225.205 31.3632 225.436 30.5832C225.718 29.6236 225.815 28.6484 226.095 27.6926C226.505 26.3072 226.914 25.578 228.51 26.052C230.216 26.552 231.911 27.2109 233.614 27.7135C234.393 27.9466 235.205 27.9491 235.973 28.2161C237.322 28.6171 236.414 30.7786 236.128 31.7343C235.82 32.8007 235.335 33.7786 234.988 34.8332C234.472 36.5728 233.356 35.2395 233.096 36.1249C232.972 36.5533 233.791 39.9179 234.109 40.0142C234.463 40.1184 235.597 38.6405 235.867 38.3749C236.291 37.9934 236.996 37.7005 237.161 37.138C237.351 36.4974 235.761 36.914 236.123 35.6718C236.431 34.6406 237.018 33.6927 237.346 32.7135C237.635 31.8724 237.778 30.9895 237.998 30.1288C238.513 28.3853 240.52 29.6757 241.695 30.0221C243.364 30.5142 245.119 30.8411 246.783 31.3306C247.781 31.6249 247.441 32.6445 247.209 33.427L247.218 33.3922Z" fill="white"/>
<path d="M249.856 38.6787C249.341 38.5029 248.755 38.1331 248.958 37.5238C249.185 36.8857 250.659 37.6306 251.367 35.5667C251.484 35.2295 251.442 35.1488 251.106 35.0316C249.315 34.4196 248.623 32.5863 249.216 30.8571C249.885 28.9092 252.077 28.068 253.948 28.7412C256.284 29.5472 256.864 31.8154 256.127 33.9717C255.438 35.9769 252.225 39.4925 249.856 38.6787Z" fill="white"/>
<path d="M265.161 60.7786C263.518 65.026 259.276 67.9062 254.682 66.1328C252.406 65.2513 250.613 62.4947 250.169 62.3255C250.133 62.3072 249.936 62.3099 249.898 62.2995C249.476 62.4531 249.464 63.0052 249.083 63.1732C248.524 63.3932 247.685 62.7891 247.148 62.5443C246.458 62.2787 245.712 62.1484 245.047 61.9323C243.044 61.1536 243.966 59.6875 244.552 58.1693C244.927 57.2031 245.458 56.3385 245.82 55.4075C246.286 54.1979 246.616 52.9362 247.082 51.7318C247.893 49.6237 248.278 50.168 250.073 50.8607C251.007 51.224 251.851 51.7057 252.817 52.0833C254.989 52.9245 252.052 56.3099 254.849 57.3893C255.817 57.763 257.152 57.4882 257.541 56.4896C258.94 52.862 250.187 48.9232 253.065 41.388C254.635 37.3125 258.911 35.3932 262.981 36.9661C264.462 37.543 265.908 39.25 266.634 39.5299C266.911 39.6354 267.063 39.0273 267.435 39.0078C267.757 38.9739 268.174 39.1341 268.45 39.2396C269.07 39.4805 271.97 40.6042 272.018 41.099C272.041 41.5417 271.898 42.0039 271.757 42.3828C271.384 43.349 270.804 44.2344 270.432 45.2031C270.018 46.2734 269.776 47.4062 269.316 48.4974C268.673 50.1576 267.455 49.0104 266.209 48.5326C265.583 48.2891 264.898 48.2214 264.276 47.9805C264.106 47.9166 263.955 47.7813 263.884 47.6719C263.453 46.1146 264.018 44.5495 262.088 43.8021C261.432 43.5495 260.523 43.9558 260.237 44.5938C259.026 47.698 268.533 51.9636 265.127 60.7683L265.161 60.7786Z" fill="white"/>
<path d="M127.583 30.4976C128.864 29.1147 129.509 26.896 129.334 25.0158L129.297 25.0185C129.033 22.2216 127.198 20.1239 124.211 20.4065C122.226 20.594 120.645 22.3387 120.83 24.3322C120.923 24.9195 121.121 25.456 121.462 25.9065C121.962 26.4898 122.642 26.6135 123.341 26.9221C123.419 26.9481 123.457 26.9456 123.462 27.0185C123.548 27.9404 120.2 28.7008 119.573 28.7607C117.108 29.0302 114.364 29.1018 112.582 31.094C111.6 32.1149 111.046 32.9495 111.186 34.4586C111.332 35.969 112.325 37.4378 114.057 37.2737C114.057 37.2737 114.314 37.2516 114.305 37.1409C114.275 36.8089 114.059 36.5315 114.024 36.163C113.918 35.0198 115.252 34.1865 116.247 34.0914C117.205 34.0029 118.114 34.5498 118.208 35.5445C118.395 37.568 116.117 39.0133 114.348 39.1813C111.617 39.3987 109.139 37.5511 108.88 34.7867C108.741 32.9417 109.673 30.6214 111.739 30.43C112.069 30.3961 112.45 30.4756 112.685 30.1956C112.919 29.9482 113.731 26.7125 113.696 26.344C113.553 24.8323 110.652 26.4066 110.41 23.8284C110.324 22.9091 110.794 21.9664 111.787 21.8727C114.074 21.6578 113.7 24.4091 115.505 24.236C116.649 24.1318 117.759 24.0992 118.862 23.9977C119.384 23.9834 119.703 23.805 119.65 23.2516C119.462 21.2698 119.484 19.2659 119.308 17.2815C119.303 17.2373 119.303 17.193 119.297 17.1539C119.208 16.1774 118.862 15.9117 118.373 15.8961C117.899 15.8854 117.293 16.1149 116.641 16.1761C116.128 16.2255 115.598 16.1618 115.083 16.2113C114.823 16.2347 114.493 16.2698 114.368 16.5029C114.301 16.6188 114.277 16.7347 114.284 16.8077C114.291 16.8962 114.316 17.0173 114.329 17.1435C114.348 17.3284 114.33 17.5121 114.13 17.5264C114.118 17.5264 113.949 17.4248 113.687 17.279C113.014 16.9131 111.685 16.2725 110.49 16.3832C109.844 16.4457 109.211 16.5576 108.603 16.71C107.273 17.0498 106.08 17.6201 105.186 18.4639C104.044 19.542 103.384 21.0668 103.579 23.1332C103.639 23.7582 103.811 24.4118 104.016 25.0225C104.215 25.5277 104.413 26.0641 104.787 26.4769C104.911 26.611 105.146 26.7399 105.163 26.9222C105.138 27.0394 102.601 29.3233 102.308 29.7582C100.776 32.0563 100.227 34.1175 100.49 36.8806C100.794 40.4925 102.212 42.9274 105.194 44.9847C108.212 47.0433 111.48 47.0368 114.982 46.7022C120.032 46.2269 125.018 42.7464 125.941 37.529C126.051 36.7399 126.237 35.9405 126.163 35.1683C126.054 34.0264 125.118 32.7373 125.115 32.7022C125.047 32.3701 127.176 30.9455 127.583 30.4976Z" fill="white"/>
<path d="M156.945 5.48063C160.656 5.3621 163.94 6.48194 167.47 5.48063C168.705 5.29183 169.424 6.25797 170.576 6.42855C176.058 6.11215 180.94 7.92985 186.165 8.50146C190.329 9.34912 194.122 7.98974 198.114 9.54704C199.529 9.71109 201.132 10.1395 202.631 10.3934C204.042 9.67204 205.031 11.1668 206.533 10.978C206.799 10.9428 207.154 11.0679 207.429 11.0835C210.674 11.3153 213.889 11.4325 217.104 11.9767C219.826 12.4403 222.151 14.1864 224.955 14.495C225.192 14.5236 225.932 14.2411 226.013 14.2358C226.188 14.2265 233.112 16.5002 233.385 16.6707C234.237 17.2007 235.161 17.5991 236.106 17.9246C238.083 18.6069 240.147 18.9858 242.161 19.5301C243.171 19.8022 244.13 20.2397 245.127 20.5249C245.526 20.6382 245.899 20.4689 246.299 20.5276C246.867 20.6175 247.378 20.9208 247.966 20.9456C248.205 20.9562 248.524 20.8245 248.755 20.8595C249.242 20.9298 253.841 21.896 254.531 22.7267C254.971 23.2528 256.459 23.7293 257.247 24.0262C258.152 24.3726 260.171 25.633 260.171 25.633C260.171 25.633 260.58 25.4299 260.981 25.4976C261.44 25.5666 261.869 25.7449 262.307 25.883C264.173 26.4871 265.769 27.271 267.544 27.8726C268.072 27.9559 268.347 28.659 268.966 28.3921C271.725 30.1356 274.829 31.2593 277.934 32.2072C278.117 33.0002 278.998 32.5483 279.531 32.9871C280.596 33.5106 281.58 34.4728 282.815 34.1981C283.177 34.9038 284.506 35.159 283.983 36.2215C283.024 38.1798 282.518 40.4819 281.296 42.5288L281.403 42.883C279.218 46.0861 278 49.9871 276.177 53.6291C275.575 54.8934 274.977 56.1564 274.381 57.4194C273.979 58.2658 273.192 59.4299 273.143 60.3908C273.101 61.1799 273.196 61.4963 272.704 62.2879C272.088 63.2814 271.38 64.1929 270.841 65.2241C270.575 65.7319 269.994 66.1447 269.777 66.62C269.612 66.9767 269.729 67.5184 269.604 67.9168C269.316 68.8257 268.77 69.7515 268.38 70.6304C267.925 71.6642 267.554 72.6538 266.958 73.6278C266.455 74.4481 265.971 75.3257 265.578 76.2033C265.028 77.4286 265.099 78.3517 263.747 78.9546C262.317 78.146 260.67 77.7671 259.234 76.9142C257.869 76.0952 256.528 74.8973 254.944 74.5158C253.171 74.0887 252.013 72.7697 249.976 72.6147C246.684 70.6968 243.416 70.9884 240.128 69.1603C236.661 67.5132 233.296 67.0965 229.656 65.5366C227.88 65.1981 226.02 64.6851 224.337 64.1655C221.942 63.659 219.721 62.5301 217.242 61.84L212.187 60.8231C211.658 61.1825 210.769 60.8364 210.326 60.6642L204.388 59.1213C203.673 58.6851 202.971 59.1355 202.26 58.6955C199.151 57.5783 195.532 58.4064 192.778 56.8361C189.5 56.508 186.924 55.2046 183.563 55.5913C179.492 55.1799 175.681 54.3283 171.699 54.3634C170.118 55.353 168.69 53.8621 166.835 54.232C165.059 53.5393 162.584 54.0028 160.722 53.6643C159.401 53.8544 158.158 53.7749 157.179 53.3413C153.996 53.37 151.341 53.0393 148.067 52.8023C145.416 53.1812 141.874 53.0328 139.135 53.4117C137.012 53.1643 135.067 53.7138 132.944 53.2867C130.908 53.4834 128.96 53.3233 126.755 53.874C124.445 53.0081 122.072 54.5315 119.945 54.2867L119.86 54.555C116.505 55.4638 113.139 54.7894 109.87 55.4352C107.133 56.0784 104.305 56.193 101.474 56.3922C98.5627 57.2164 94.9318 56.9821 91.5796 57.9834C90.5132 57.3727 89.9937 58.7034 88.8433 58.4508C88.3153 59.0719 87.603 58.4615 86.9884 58.9951C84.4246 59.1982 82.0464 60.2763 79.3927 60.4795C78.4266 61.2841 77.0034 60.3206 75.952 61.3948C71.9839 62.9339 67.8263 63.0576 64.0405 65.1253C62.3621 65.4951 60.4207 66.0406 58.6551 66.3206C57.866 67.2138 56.2697 66.7828 55.3042 67.5003C53.3582 67.8714 51.1564 68.9508 49.1284 69.5888C43.5698 71.318 39.0763 73.3909 33.6089 75.3883C31.2293 76.3818 28.8602 78.6136 25.9364 78.1097C24.2437 76.9756 24.6642 74.4052 22.9735 73.1761C22.9668 72.3818 22.2573 72.2998 21.9852 71.594C22.2332 69.5563 19.9266 68.7815 20.3524 66.7438C18.1193 64.3727 18.3504 60.6552 15.9455 58.555C15.3953 56.5237 13.963 54.413 13.7658 52.2034C11.9774 50.0094 11.7775 47.2633 9.63881 45.4274C10.2293 42.1526 7.37516 39.5198 6.37646 36.5185C7.13688 32.6227 11.3048 33.6461 13.6727 31.594C18.0027 30.844 21.0672 27.0159 25.758 27.2399C28.3953 25.3597 31.8471 25.594 34.6649 24.0654C35.368 23.3505 36.3374 23.1669 37.3094 22.9821C39.784 22.7841 41.4416 20.2034 44.2814 20.9755C50.1056 19.4195 55.2983 16.1904 61.4884 15.8688C68.1968 14.1331 75.3543 13.0966 81.9735 11.4456C85.7801 11.6774 88.9468 9.7008 92.6636 9.7581C96.6382 9.1943 100.171 8.54455 104.236 7.89091C105.819 6.81408 107.334 8.03935 109.009 7.49247C117.581 6.44299 126.432 6.72293 135.004 5.67606C140.666 5.8883 145.966 5.04715 151.458 5.70605C153.229 5.51335 155.079 5.23584 156.945 5.48063ZM143.778 8.43262C142.903 8.35062 142.042 8.14876 141.143 8.1123C139.335 8.04204 137.523 8.08632 135.714 8.00419C133.229 7.89606 130.822 8.04192 128.307 8.22424C125.793 8.40784 121.748 9.49377 121.748 9.49377C121.748 9.49377 118.205 8.90003 116.924 8.96903C115.96 9.02117 114.132 9.46643 113.25 9.8258C112.368 10.1865 111.479 9.66695 110.6 10.2893C107.408 9.43648 104.066 11.5888 100.875 10.9977C97.1688 12.0914 92.5659 11.7763 88.6812 12.6058C87.7905 12.9612 87.0718 12.344 86.1929 12.7998C85.4572 13.1826 84.827 12.9482 84.0503 13.0419C83.6206 13.0941 83.1786 13.2985 82.771 13.443C80.7 14.1865 78.605 14.6435 76.5067 15.2776C76.0939 15.4039 75.5242 15.7034 75.0913 15.6735C74.5177 15.6331 74.2495 15.1813 73.6297 15.2503C72.631 15.3596 71.9344 16.1878 71.0015 16.3831C70.1349 16.5615 69.2593 16.1383 68.3966 16.1461C67.5587 16.1488 67.0132 16.2112 66.2801 16.6018C65.6701 16.9248 65.1557 16.7893 64.4852 16.9065C62.5659 17.2373 60.6486 17.7893 58.7632 18.2737C54.9656 19.2438 51.2013 20.374 47.5614 21.8284C46.2417 22.5511 44.3797 22.1253 43.687 23.8987C41.4748 24.094 39.7182 25.2607 37.5965 25.456C34.1616 27.1669 29.7345 26.7646 26.4813 29.0901C21.4494 30.374 16.6909 32.5367 12.2912 35.2321C11.3231 35.8584 9.72605 35.5198 9.12059 36.8505C9.66485 38.4391 10.2104 40.1162 11.1961 41.6097C12.2111 46.1995 14.631 50.1604 16.8784 54.0367C19.4012 59.2321 20.7775 64.9716 23.6532 69.9026C24.1987 71.8401 25.8081 73.594 26.7944 75.2685C28.2235 76.7607 29.3537 74.3636 30.8543 74.081C31.6492 73.9013 32.3543 73.3623 33.146 73.0914C37.9116 71.6344 42.6701 69.6461 47.4331 68.0133C49.812 66.9313 52.73 66.637 54.842 65.292C60.2248 63.8284 65.2547 62.4586 70.7287 60.9964C79.8914 57.0237 90.1519 56.4912 100.22 54.4612C101.455 54.1826 102.875 54.7008 103.57 53.3675C107.541 52.0055 109.024 52.8401 116.214 52.4586C118.065 51.6474 120.284 52.2477 122.226 52.0524C129.561 50.9274 137.352 51.7438 144.511 51.1526C150.078 50.568 154.601 51.5953 160.177 51.6357C162.125 51.9716 164.772 51.2425 166.817 52.1969C167.697 51.8362 168.414 52.5354 169.296 52.4391C169.994 51.4586 171.153 52.8649 172.126 52.417C175.317 53.3623 178.057 52.9834 181.071 53.7529C184.171 53.9925 187.583 52.706 190.695 54.2698C191.753 53.9951 192.558 55.3115 193.705 54.7711C196.989 56.1591 200.438 55.4222 204.075 56.6279C205.223 56.7112 206.289 57.318 207.351 57.219C210.106 58.6982 213.496 58.8688 216.421 59.7242C219.265 60.7581 221.832 61.1826 224.674 62.3076C227.773 62.4586 230.445 64.4677 233.367 64.9742C235.406 65.4873 236.734 65.7399 238.684 66.3427C242.334 68.5198 246.222 68.5758 249.872 70.4925C251.729 70.6526 253.684 72.0498 255.549 72.9183C258.299 73.4248 260.263 75.3571 262.747 76.1305L263.187 75.7711C263.231 75.7242 263.24 75.2438 263.281 75.1331C263.364 74.9222 263.492 74.7373 263.609 74.5472C264.049 73.8362 264.049 72.9729 264.512 72.2255C265.006 71.4274 265.638 70.7268 266.126 69.9248C266.645 69.0693 267.005 68.0836 267.374 67.1591C267.729 66.288 268.21 65.4638 268.595 64.6018C268.725 64.3076 268.869 64.0394 269.02 63.7503C269.127 63.5367 269.098 63.4039 269.145 63.219C269.408 62.206 270.072 61.3232 270.565 60.4104C271.109 59.4104 271.632 58.4039 272.136 57.3818C272.65 55.6058 274.143 54.1774 274.13 52.4117C274.903 49.9274 276.163 47.3649 277.861 45.3141C277.51 43.0498 280.416 39.9899 281.003 36.7099C280.468 36.0068 279.195 35.1149 278.219 34.7685C275.382 34.2607 273.424 32.2425 270.494 31.6526C269.252 30.8662 267.83 30.3466 266.497 29.4755C263.166 28.4742 259.822 27.5042 256.541 26.3883C255.743 26.1214 254.9 25.9117 254.137 25.5654C253.524 25.2919 252.963 24.9143 252.351 24.6461C251.279 24.1774 250.106 23.986 249.031 23.5185C248.796 23.4144 248.469 23.1943 248.21 23.1826C247.91 23.1692 246.148 23.4912 245.871 23.3649C239.122 20.3271 233.236 19.7685 226.311 17.1696C223.921 16.6656 221.7 15.7112 219.136 15.6435C216.83 14.8675 214.437 14.4482 212.216 13.581C209.645 12.8089 206.643 13.5419 204.156 12.5042C200.264 12.5367 194.193 12.3831 194.807 11.1565C193.024 10.288 190.078 11.2972 188.302 10.5185C186.71 10.443 185.109 9.48465 183.7 10.1149C179.971 8.73205 175.733 9.387 172.007 8.53414C170.326 8.1982 168.733 8.47681 167.315 7.95731C166.567 7.68518 164.779 8.18779 163.908 8.15263C162.769 8.10836 161.637 7.97164 160.509 7.8232C158.95 7.62007 157.398 7.3206 155.825 7.24247C155.173 7.2086 154.527 7.16301 153.894 7.33101C153.238 7.50549 152.693 7.96382 151.994 8.0094C150.932 8.081 149.973 7.79193 148.868 7.90259C147.583 8.03669 146.312 8.30102 145.025 8.43774C144.604 8.48454 144.191 8.47182 143.778 8.43262Z" fill="white"/>
<path d="M269.398 79.9861C269.863 78.964 270.981 78.5447 271.968 78.9926C272.945 79.4353 273.364 80.5525 272.905 81.5747C272.435 82.6085 271.316 83.0239 270.343 82.5838C269.356 82.1359 268.929 81.0226 269.398 79.9861ZM270.181 82.9432C271.354 83.4744 272.77 83.0161 273.333 81.77C273.897 80.5278 273.304 79.1619 272.13 78.6307C270.944 78.0968 269.526 78.5564 268.97 79.7908C268.401 81.0395 268.992 82.4067 270.181 82.9432ZM270.625 80.7452L271.057 80.9406L271.226 82.3169L271.645 82.5057L271.436 81.0968C271.823 81.2113 272.19 81.1411 272.393 80.701C272.612 80.2114 272.416 79.8598 271.828 79.5981L270.885 79.1697L269.76 81.6541L270.136 81.8221L270.625 80.7452ZM270.768 80.4275L271.114 79.6567L271.632 79.8898C271.892 80.0056 272.148 80.1919 272.007 80.4978C271.83 80.882 271.539 80.7752 271.217 80.6293L270.768 80.4275Z" fill="white"/>
</svg>
