<svg width="300" height="94" viewBox="0 0 300 94" fill="none" xmlns="http://www.w3.org/2000/svg">
<g clip-path="url(#clip0_935_513)">
<path d="M34 41.1C34.8 40.7 35.6 40.3 36.5 40.1C36.5 36.8 36.6 32.7 36.9 28L36.4 27.9C32 34 27.7 36 23.4 36C16.6 36 11.5 30.3 11.5 21.6C11.5 13.3 17.1 7.6 23.7 7.6C28.8 7.6 33 10.5 36.3 16L36.8 15.9C36.8 12 36.9 7.4 37.2 3.1C36.3 2.9 35.5 2.6 34.7 2.3C31.1 0.8 27.3 0.1 23.5 0C10.4 0 0 9.2 0 22.5C0 35.3 8.9 43.6 21.6 43.6C25.9 43.7 30.1 42.8 34 41.1Z" fill="white"/>
<path d="M83.2 42.5C82 41.4 81.3 40.4 79.5 36C73.9 22.4 70.3 13.8 68.7 9.19995C67.7 6.39995 66.8 3.59995 66.2 0.699951C64.6 0.899951 61.5 0.999951 59.3 0.999951C56.1 0.999951 54.5 0.899951 52.4 0.799951V0.999951C53.3 1.89995 53.9 2.99995 54.3 4.19995C52.1 9.89995 48.3 19.1 41.4 35.4C40.5 38 39.2 40.3999 37.5 42.5999V42.9C39.2 42.8 41.8 42.7 43.9 42.7C46.2 42.7 49 42.7 51.5 42.9V42.5999C50.3 42.1999 49.6 41.1 49.7 39.9C49.8 38.3 50.1 36.6999 50.8 35.2999C51 34.6999 51.2 34.1 51.5 33.5H67.1C67.5 34.3 67.8 35.2 68 35.9C68.5 37.2 68.8 38.5999 68.9 40.0999C69 41.2999 68.2 42.3999 67.1 42.7999V43.0999C68.9 42.8999 71.6 42.9 75.1 42.9C78.3 42.9 81.2 42.9999 83.4 43.0999V42.5H83.2ZM53.5 27.1C55.1 22.6 57 17.6 59 12.3C61.1 17.9 63.1 22.8 64.7 27.1H53.5Z" fill="white"/>
<path d="M87.2 17.5001V26.0001C87.2 40.1001 86.7 41.0001 83.8 42.4001V42.7001C86.7 42.6001 89.1 42.5001 92.5 42.5001C96.1 42.5001 98.5 42.6001 101.9 42.7001V42.4001C98.3 41.0001 97.8 40.1001 97.8 27.3001C98.5 27.3001 99.6 27.2001 100.7 27.2001C106 40.1001 114.3 44.2001 125 45.0001L125.2 44.6001C120.2 40.8001 114.8 33.6001 111.4 24.2001C115.8 22.4001 119.6 19.1001 119.6 12.9001C119.6 5.6001 114.4 0.600098 102.2 0.600098C98 0.800098 94.3 1.0001 92 1.0001C88.5 1.0001 86.6 0.900098 83.6 0.800098V1.1001C86.8 2.4001 87.2 3.4001 87.2 17.5001ZM97.9 7.5001C98.8 7.4001 99.7 7.3001 100.6 7.3001C105.6 7.3001 108.5 9.7001 108.5 14.3001C108.5 19.2001 105.2 21.5001 99.9 21.5001H97.9V7.5001Z" fill="white"/>
<path d="M127.5 7.19995V25.7C127.5 39.3 127.4 40.4 125.3 42.5V42.7999C127.9 42.6999 129.5 42.5999 131.8 42.5999C134.7 42.5999 136.7 42.6999 140.1 42.7999V42.5C136.6 41.1 136.1 40.5 136.1 27.7V17.9L149.9 35.4C151.8 37.8 153.5 40.4 155.1 43H163.1C162.9 38.8 162.8 34.9 162.8 25.2999V18.2999C162.8 3.39995 163.3 2.39995 166.6 1.09995V0.799951C163.6 0.999951 161.7 0.999951 159 0.999951C156 0.999951 153.9 0.899951 150.4 0.799951V1.09995C153.9 2.39995 154.4 3.09995 154.4 15.8V23.7999L140.5 6.09995C139.2 4.39995 138 2.59995 137 0.699951C134.9 0.999951 131.6 0.999951 129.7 0.999951C128 0.999951 125.2 0.899951 123.4 0.799951V1.09995C125.4 2.59995 126.8 4.69995 127.5 7.19995Z" fill="white"/>
<path d="M168.2 42.5001V42.8001C171.2 42.7001 174.5 42.6001 178 42.6001C184.6 42.6001 194 42.7001 200.2 42.8001C200.4 39.0001 200.9 35.3001 201.6 31.5001L201.3 31.3001C197.7 35.3001 195 36.0001 189.4 36.0001C184.1 36.0001 182.5 35.0001 182.5 30.8001V24.1001L187.5 24.2001C194.5 24.4001 195.4 24.8001 197.1 27.2001H197.5C197.3 25.2001 197.2 23.1001 197.3 21.1001C197.3 19.2001 197.4 16.4001 197.5 15.0001H197.1C195.4 17.3001 194.6 17.9001 187.5 18.0001L182.5 18.1001V7.7001C184.1 7.5001 185.7 7.5001 187.3 7.5001C195.8 7.5001 197.3 8.2001 200.1 12.0001L200.4 11.9001C200.1 8.2001 200.1 4.4001 200.2 0.600098C194.2 1.0001 188.6 1.0001 178.5 1.0001C175 1.0001 171.2 0.900098 168.1 0.800098V1.1001C171.4 2.4001 171.8 3.4001 171.8 17.4001V26.0001C171.9 40.2001 171.5 41.1001 168.2 42.5001Z" fill="white"/>
<path d="M225.6 43.5999C230.7 43.6999 235.8 42.4999 240.4 40.1999C241.4 39.6999 242.4 39.1999 243.5 38.8999C243.3 36.9999 243.2 35.1999 243.2 33.0999C243.2 24.4999 243.9 22.7999 246 21.7999V21.4999C243.7 21.5999 241.6 21.6999 238.2 21.6999C234.7 21.6999 232.4 21.5999 229 21.4999V21.7999C232 22.6999 233.1 24.0999 233.1 28.8999V29.6999C233.1 32.8999 232.7 33.8999 231.9 34.7999C230.5 36.0999 228.7 36.6999 226.8 36.5999C220.5 36.5999 215.4 31.6999 215.4 22.0999C215.4 13.8999 219.6 7.6999 227.3 7.6999C232.2 7.6999 236.7 10.1999 240.6 15.6999L241.1 15.5999C241.1 11.7999 241.2 6.9999 241.5 2.7999C240.8 2.5999 240 2.3999 239.3 2.0999C235.5 0.599902 231.5 -0.100098 227.5 -0.100098C213.6 -9.76548e-05 204 9.7999 204 22.4999C204 36.0999 214 43.5999 225.6 43.5999Z" fill="white"/>
<path d="M265 42.5C261.7 41.1 261.2 40.2001 261.2 26.1V17.5C261.2 3.40005 261.7 2.50005 265 1.20005V0.800049C261.7 1.00005 259.3 1.00005 255.8 1.00005C252.3 1.00005 249.7 0.900049 246.7 0.800049V1.10005C250 2.40005 250.5 3.40005 250.5 17.4V26C250.5 40.1 250 41.1001 246.7 42.4001V42.7001C249.7 42.6001 252.2 42.5 255.8 42.5C259.3 42.5 261.7 42.6001 265 42.7001V42.5Z" fill="white"/>
<path d="M300 30.3001L299.7 30.1001C295.9 34.7001 293.4 36.0001 287.5 36.0001C282.8 36.0001 281.4 35.0001 281.4 30.8001V24.1001L287 24.2001C294 24.4001 295 24.8001 296.7 27.2001H297.1C296.9 25.2001 296.8 23.1001 296.9 21.1001C296.9 19.2001 297 16.4001 297.1 15.0001H296.7C295 17.3001 294.1 17.9001 287 18.0001L281.4 18.1001V7.7001C282.8 7.5001 284.3 7.5001 285.8 7.5001C294.7 7.5001 296.1 8.5001 298.9 12.6001L299.2 12.5001C298.9 8.6001 298.8 4.6001 298.9 0.600098C292.7 1.0001 287.2 1.0001 277.4 1.0001C273.8 1.0001 270 1.0001 267 0.800098V1.1001C270.3 2.4001 270.7 3.4001 270.7 17.4001V26.0001C270.7 40.1001 270.3 41.1001 267 42.4001V42.7001C270 42.6001 273.3 42.5001 276.8 42.5001C283.2 42.5001 292.2 42.6001 298.3 42.7001C298.6 38.6001 299.1 34.4001 300 30.3001Z" fill="white"/>
<path d="M106.4 52.1001V52.4001C110 53.7001 110.4 54.2001 110.4 66.8001V68.3001H93.1V66.8001C93.1 54.3001 93.5 53.7001 97.2 52.4001V52.1001C93.9 52.2001 91.4 52.3001 87.8 52.3001C84.2 52.3001 81.8 52.2001 78.7 52.1001V52.4001C82 53.7001 82.4 54.7001 82.4 68.7001V77.3001C82.4 91.4001 82 92.4001 78.7 93.7001V94.0001C81.7 93.9001 84.2 93.8001 87.8 93.8001C91.3 93.8001 93.8 93.9001 97.2 94.0001V93.7001C93.6 92.3001 93.1 91.8001 93.1 79.3001V76.2001H110.4V79.3001C110.4 91.8001 110 92.3001 106.4 93.7001V94.0001C109.7 93.9001 112.2 93.8001 115.8 93.8001C119.2 93.8001 121.6 93.9001 124.5 94.0001V93.7001C121.5 92.4001 121.1 91.4001 121.1 77.3001V68.7001C121.1 54.6001 121.6 53.7001 124.8 52.4001V52.1001C121.8 52.2001 119.3 52.3001 115.8 52.3001C112.2 52.3001 109.7 52.2001 106.4 52.1001Z" fill="white"/>
<path d="M167 87.1999C161.4 73.5999 157.8 64.9999 156.2 60.3999C155.2 57.5999 154.3 54.7999 153.7 51.8999C152.1 51.9999 149.1 52.0999 146.8 52.0999C143.6 52.0999 142 51.9999 139.9 51.8999V52.0999C140.8 52.9999 141.4 54.0999 141.8 55.2999C139.6 60.9999 135.8 70.1999 128.9 86.4999C128 89.0999 126.7 91.4999 125 93.6999V93.9999C126.7 93.8999 129.3 93.7999 131.4 93.7999C133.7 93.7999 136.5 93.7999 139 93.9999V93.6999C137.8 93.2999 137.1 92.1999 137.2 90.9999C137.3 89.3999 137.6 87.7999 138.3 86.3999C138.5 85.7999 138.7 85.1999 139 84.5999H154.6C155 85.3999 155.3 86.2999 155.5 86.9999C156 88.2999 156.3 89.6999 156.4 91.1999C156.5 92.3999 155.7 93.4999 154.6 93.8999V93.9999C156.4 93.7999 159.1 93.7999 162.6 93.7999C165.8 93.7999 168.7 93.8999 170.9 93.9999V93.6999C169.5 92.6999 168.8 91.5999 167 87.1999ZM141 78.2999C142.6 73.7999 144.5 68.7999 146.5 63.4999C148.6 69.0999 150.6 73.9999 152.2 78.2999H141Z" fill="white"/>
<path d="M190.1 87.3C186.4 87.3 185.4 86.2 185.4 83.1V66.7C185.4 54.2 185.9 53.7 189.8 52.3V52C186.3 52.1 183.8 52.2 180.1 52.2C176.5 52.2 174.1 52.1 171 52V52.3C174.3 53.6 174.7 54.6 174.7 68.6V77.2C174.7 91.3 174.3 92.4 171.3 93.6V94C174.3 93.9 178.7 93.8 182.1 93.8C187.9 93.8 194.8 93.9 200.4 94C200.6 89.1 201.2 84.3 202.1 79.5L201.8 79.3C197 85.9 193.8 87.3 190.1 87.3Z" fill="white"/>
<path d="M222.3 87.3C218.6 87.3 217.6 86.2 217.6 83.1V66.7C217.6 54.2 218.1 53.7 222 52.3V52C218.5 52.1 216 52.2 212.3 52.2C208.7 52.2 206.3 52.1 203.2 52V52.3C206.5 53.6 206.9 54.6 206.9 68.6V77.2C206.9 91.3 206.5 92.3 203.2 93.6V94C206.2 93.9 210.8 93.8 214.3 93.8C220.1 93.8 227 93.9 232.6 94C232.8 89.1 233.4 84.3 234.3 79.5L234 79.3C229.1 85.9 225.9 87.3 222.3 87.3Z" fill="white"/>
</g>
<defs>
<clipPath id="clip0_935_513">
<rect width="300" height="94" fill="white"/>
</clipPath>
</defs>
</svg>
