<svg width="188" height="28" viewBox="0 0 188 28" fill="none" xmlns="http://www.w3.org/2000/svg">
<g clip-path="url(#clip0_935_724)">
<path d="M97.3 3.4L96.9 2.2L97.3 0.1L97.1 0L91.6 4.6V4.7L97.3 3.4Z" fill="white"/>
<path d="M13.3 25.2001C12.8056 25.7071 12.2146 26.1099 11.562 26.3847C10.9093 26.6595 10.2082 26.8008 9.5 26.8C5.1 26.8 4 22.9 4 18.3C4 13.7 5 9.80005 9.4 9.80005C10.0811 9.7835 10.7574 9.91846 11.3799 10.1952C12.0025 10.4719 12.5559 10.8834 13 11.4L15.5 15.2001H15.7V9.50005H15.5L13.2 10.7001C12.1382 9.79967 10.7922 9.30377 9.4 9.30005C5.1 9.30005 0 12.6 0 18.4C0 24.2 5 27.5 9.5 27.5C10.9689 27.4897 12.3865 26.9581 13.5 26L15.7 27.3H15.9V21.3H15.7L13.3 25.2001Z" fill="white"/>
<path d="M29.7 9.19995C25.5 9.19995 20.5 12.7999 20.5 18.2999C20.5 23.7999 25.5 27.4 29.7 27.4C33.9 27.4 38.9 23.7999 38.9 18.2999C38.9 12.7999 34 9.19995 29.7 9.19995ZM29.7 26.7999C25.5 26.7999 24.4 23.0999 24.4 18.2999C24.4 13.4999 25.5 9.79995 29.7 9.79995C33.9 9.79995 35 13.4999 35 18.2999C35 23.0999 34 26.7999 29.7 26.7999Z" fill="white"/>
<path d="M54.8 10H57V21H56.9L49.1 9.5H42.1V10H44.2V26.6H42.1V27.1H47.1V26.6H44.9V10L57.5 27.4H57.7V10H59.8V9.5H54.8V10Z" fill="white"/>
<path d="M71.5 9.5H63.6V10H65.9V26.6H63.6V27.1H71.5C75.4 27.1 81.9 25.4 81.9 18.2C81.9 11 75.4 9.5 71.5 9.5ZM71.3 26.6H69.4V10H71.3C75.9 10 78 13.3 78 18.3C78 23.3 75.9 26.6 71.3 26.6Z" fill="white"/>
<path d="M97.6 26.6H91V17.9H94.2999C95.2418 18.9044 96.0182 20.052 96.6 21.3H96.7999V14H96.6C96.0182 15.248 95.2418 16.3956 94.2999 17.4H91V10H96.9C98.6 11.1 100.1 14.2 100.1 14.2H100.3V9.5H85.2V10H87.5V26.6H85.2V27.1H100.8V21.2H100.6C99.8771 23.1406 98.8657 24.961 97.6 26.6Z" fill="white"/>
<path d="M124.6 10H126.8V21H126.7L118.9 9.5H111.8V10H114V26.6H111.8V27.1H116.8V26.6H114.7V10L127.3 27.4H127.4V10H129.6V9.5H124.6V10Z" fill="white"/>
<path d="M140.9 8.8999H140.7L133.2 26.4999H131.1V26.9999H135.8V26.4999H133.8L136.5 20.1999H142.2L145.1 26.4999H142.8V26.9999H151V26.4999H148.9L140.9 8.8999ZM136.8 19.7999L139.4 13.6999L142.1 19.7999H136.8Z" fill="white"/>
<path d="M163.4 16.7998L159.9 15.5999C158.2 14.9999 156.8 14.1999 156.8 12.4999C156.8 10.7999 158.3 9.69985 160.6 9.69985C161.174 9.6519 161.751 9.73501 162.288 9.9429C162.825 10.1508 163.308 10.478 163.7 10.8999L166.2 14.6999H166.4V9.09985H166.2L163.9 10.2998C162.986 9.50591 161.811 9.07844 160.6 9.09985C159.888 9.05935 159.174 9.16316 158.503 9.40504C157.832 9.64693 157.216 10.0219 156.693 10.5075C156.17 10.9931 155.751 11.5793 155.46 12.231C155.169 12.8826 155.012 13.5863 155 14.2998C155 16.7998 156.8 18.0998 158.7 18.7998L162.2 20.0998C164.1 20.7998 165.3 21.5999 165.3 23.3999C165.3 25.1999 164.1 26.6999 161.1 26.6999C159.643 26.6289 158.245 26.1044 157.1 25.1999L154.5 20.8999H154.2V26.9999H154.5L156.7 25.7999C157.913 26.7199 159.379 27.2437 160.9 27.2999C164.7 27.2999 167.2 24.5998 167.2 21.5998C167.2 18.5998 165.6 17.4998 163.4 16.7998Z" fill="white"/>
<path d="M171.3 9.5V15H171.5C172.355 13.2291 173.394 11.5532 174.6 10H177.7V26.6H174.9V27.1H184V26.6H181.2V10H184.3C185.506 11.5532 186.545 13.2291 187.4 15H187.6V9.6H171.3V9.5Z" fill="white"/>
</g>
<defs>
<clipPath id="clip0_935_724">
<rect width="188" height="28" fill="white"/>
</clipPath>
</defs>
</svg>
