<svg width="400" height="400" viewBox="0 0 400 400" fill="none" xmlns="http://www.w3.org/2000/svg">
<g clip-path="url(#clip0_937_853)">
<mask id="mask0_937_853" style="mask-type:luminance" maskUnits="userSpaceOnUse" x="50" y="121" width="300" height="158">
<path d="M349.906 121H50V278.906H349.906V121Z" fill="white"/>
</mask>
<g mask="url(#mask0_937_853)">
<path d="M77.2864 199.953C77.2864 187.766 80.8357 176.839 87.1299 168.145L68.9765 184.836C55.5383 197.202 50 209.029 50 226.321C50 254.786 69.4789 278.906 104.092 278.906C117.335 278.906 128.806 273.818 137.347 265.704L138.621 264.529V277.503H175.196C189.958 277.503 201.243 274.553 208.313 268.014L213.668 263.079V277.486H245.396L261.347 262.783V277.486H293.074L321.286 251.127H293.072V212.707H270.344V251.127H242.12V234.787C236.299 246.154 222.986 251.127 203.804 251.127H167.23V236.675C158.487 246.323 146.013 252.536 131.377 252.536C96.7637 252.536 77.2848 228.421 77.2848 199.953M232.371 198.497C236.531 200.979 239.803 203.874 242.114 207.776V183.846C240.449 190.252 237.031 194.908 232.371 198.497ZM216.354 218.601C216.354 213.974 213.833 210.603 206.685 210.603H194.055V227.096H205.987C213.696 227.096 216.357 223.37 216.357 218.601M215.516 179.9C215.516 176.114 212.994 172.669 207.535 172.669H194.061V188.177H207.815C213.136 188.177 215.523 183.685 215.523 179.898M125.153 212.847V187.127H167.23V164.941L149.014 181.696C144.354 176.392 138.685 173.658 130.391 173.658C115.681 173.658 105.509 185.019 105.509 199.966C105.509 215.692 115.681 226.273 130.674 226.273C139.876 226.273 148.366 221.234 150.393 212.864L125.153 212.847ZM349.906 225.148V122.409H318.263L302.249 137.296V122.409H270.516L262.551 129.8C256.249 124.832 246.557 122.409 233.113 122.409H195.837L189.185 128.568C181.2 123.837 171.469 121 160.188 121C145.03 121 132.629 126.149 122.831 135.154L101.025 155.254C109.189 150.22 119.119 147.368 130.258 147.368C145.621 147.368 158.114 152.631 167.23 160.772V148.771H204.505C226.884 148.771 238.865 155.505 242.12 169.474V148.771H270.344V186.353H293.067V148.771H321.299V251.127L349.906 225.148Z" fill="white"/>
</g>
</g>
<defs>
<clipPath id="clip0_937_853">
<rect width="300" height="158" fill="white" transform="translate(50 121)"/>
</clipPath>
</defs>
</svg>
