<svg width="1248" height="1320" viewBox="0 0 1248 1320" fill="none" xmlns="http://www.w3.org/2000/svg">
<g clip-path="url(#clip0_937_854)">
<path d="M624 160C900.097 160 1124 383.847 1124 660C1124 936.153 900.153 1160 624 1160C347.847 1160 124 936.139 124 660C124 383.861 347.847 160 624 160ZM463.208 786.208C453.65 786.799 444.136 787.977 434.722 789.736C428.514 790.861 420.111 792.693 413.736 794.443C400 828.596 385.722 853.375 364.75 877.208C358.005 840.47 350.192 807.005 350.181 806.958C342.796 807.196 335.439 807.971 328.167 809.278C321.358 810.516 314.663 812.319 308.153 814.667C308.178 814.76 316.792 847.229 326.278 900.347C335.765 953.468 340.653 991.699 340.667 991.806C347.856 991.612 355.021 990.869 362.097 989.583C369.085 988.309 375.959 986.474 382.653 984.097C382.643 984.026 378.05 952.19 373.097 923.943C376.194 921.068 379.819 917.125 382.819 913.792C382.891 913.842 398.641 924.814 418.042 940.847C429.669 950.423 440.681 960.721 451.014 971.681C456.444 971.194 467.556 969.902 473.514 969.068C484.252 967.641 494.863 965.38 505.25 962.306C505.182 962.235 481.117 937.302 455.375 915.417C441.15 903.195 426.242 891.792 410.722 881.264C432.718 852.281 450.398 820.263 463.208 786.208ZM894.722 796.568C853.056 788.681 821.333 805.278 814.903 839.236C808.445 874.917 833 891.583 862.056 904.514C892.361 918.472 895.875 924.569 894.139 933.681C892.319 943.347 883.222 948.208 862.958 944.361C841.847 940.361 824.403 929.347 814.347 917.722C804.005 925.706 795.3 935.609 788.708 946.889V946.903C798.361 959.028 818.64 975.166 854.986 982.068C898.347 990.277 929.68 974.194 936.097 935.653C941.514 903.806 921.097 885.347 888.875 870.667C857.959 856.819 854.736 852.208 856.417 843.361C857.986 835.083 868.083 830.722 884.75 833.861C901.218 836.796 916.41 844.656 928.319 856.403C939.778 849.407 948.777 839.019 954.069 826.681C944.944 816.375 925.986 802.485 894.722 796.568ZM673.472 775.236C647.111 774.681 629.014 776.278 614.069 778.5C614.074 778.586 616.041 812.567 614.875 865.667C613.709 918.773 610.382 957.635 610.375 957.722C630.268 960.755 650.35 962.389 670.472 962.611C733.007 963.907 775.13 929.079 776.978 870.635L777.014 869.264C778.167 814.167 741.375 776.667 673.472 775.236ZM559.264 779.181C552.025 778.251 544.716 777.995 537.431 778.417C530.417 778.555 523.436 779.412 516.597 780.972C516.597 780.972 520.083 819.333 522.292 865.278C524.5 911.222 524.111 960.917 524.111 960.917C531.359 961.717 538.657 961.976 545.944 961.693C552.946 961.403 559.913 960.549 566.778 959.139C566.779 959.045 567.304 916.719 564.944 863.5C562.583 810.222 559.264 779.181 559.264 779.181ZM656.319 814.778C662.917 814.361 668.931 814.486 674.667 814.597C711.333 815.347 730.681 836.542 730.014 868.861V868.875C729.319 902.861 708.806 924.361 673.542 923.625C666.694 923.472 660.389 923.069 654.097 922.653C654.097 922.653 656.444 899.277 657.236 867.443C658.026 835.698 656.329 814.893 656.319 814.778ZM495.097 463.944C479.486 391.097 409.5 357.806 318.125 380.292L318.167 380.347C285.417 388.306 246.125 402.833 223.083 415.069C255.083 520.611 278.847 638.389 291.639 746C321.489 741.204 351.075 734.881 380.278 727.056C371.568 673.556 362.246 627.275 362.222 627.153L383.278 622.528C466.306 602.125 510.263 534.778 495.097 463.944ZM936.542 377.708C863.556 364.111 808.5 406.889 799.667 475.014C792.389 531.944 827 566.056 897.833 596.528C948.361 618.278 928.264 655.957 896.319 652.556C870.542 649.806 842.764 629.847 824.708 608.792C824.708 608.792 811.611 621.292 796.333 639.347C780.68 657.743 773.331 669.743 773.292 669.806C798.986 700.847 841.625 723.875 881.625 729.361C950.306 738.736 1003.24 698.639 1012.72 634.042C1022.87 565.458 968.889 536.278 930.5 519.542C897.389 505.139 883.612 492.931 886.278 477.361C889.278 459.542 928.556 443.333 985.361 491.778C985.403 491.749 999.216 481.985 1013.92 462.861C1028.64 443.708 1035.58 430.75 1035.58 430.75C1035.58 430.75 995.292 388.597 936.542 377.708ZM629.653 342.792C591.157 343.008 552.85 348.19 515.681 358.208C527.986 469.125 527.986 594.889 518.347 696.195C539.847 702 578.681 708.945 639.111 708.945C714.542 708.875 771.056 664.667 771.056 600.889C771.069 560.847 754.278 536.556 720.208 520.736H720.153C748.389 504.167 753.722 459.5 753.722 445.5C753.681 383.875 709.222 342.792 629.653 342.792ZM605.708 561.042C644.139 553.764 685.944 562.57 685.944 598.208C685.944 633.861 643.819 641.222 603.042 633.083C603.043 633.068 605.708 601.31 605.708 561.042ZM347.889 452.764C380.625 444.778 404.958 460.222 410.931 488.194C417.109 516.673 400.828 538.355 360.269 548.816L358.319 549.278C354.105 550.3 349.82 551.005 345.5 551.389L325.861 459.819C325.93 459.795 341.375 454.385 347.889 452.764ZM603.667 421.111C644.181 411.389 676.763 422.139 676.764 456.847C676.764 491.556 639.611 499.389 605.764 491.944C605.764 454.515 603.675 421.236 603.667 421.111Z" fill="white"/>
</g>
<defs>
<clipPath id="clip0_937_854">
<rect width="1000" height="1000" fill="white" transform="translate(124 160)"/>
</clipPath>
</defs>
</svg>
