<svg width="1215" height="504" viewBox="0 0 1215 504" fill="none" xmlns="http://www.w3.org/2000/svg">
<path d="M252 0C391.302 0 504 112.698 504 252C504 391.302 391.302 504 252 504C112.698 504 0 391.302 0 252C0 112.698 112.698 0 252 0ZM1121.75 98.3516C1145.2 98.3516 1171.45 105.354 1190.35 113.4V170.451C1172.15 159.597 1148.35 150.849 1121.75 150.849C1099 150.849 1085.7 160.299 1085.7 176.049C1085.7 198.099 1107.75 209.646 1135.39 224.001C1163.05 238.356 1211 262.152 1210.65 318.852C1210.65 373.104 1169.7 406.701 1105.3 406.701C1076.6 406.701 1043.35 393.749 1027.95 382.896V322.353C1044.75 335.646 1069.95 352.098 1106 352.098C1131.9 352.098 1147.3 341.946 1147.3 324.099C1147.3 303.093 1133.3 294.695 1096.55 275.103C1059.45 255.501 1025.5 231.345 1025.5 180.945C1025.5 137.898 1055.25 98.3516 1121.75 98.3516ZM191.79 100.8C122.85 100.8 64.044 157.149 65.79 226.449C66.8522 277.902 100.098 316.404 146.295 331.101V403.2H259.695V342.999H274.05C292.59 342.999 306.945 329.004 306.945 311.85V260.046L334.944 254.448C341.244 253.404 344.394 246.401 341.244 241.146L267.75 100.8H191.79ZM322.344 100.8L395.847 241.146C398.646 246.402 395.496 253.053 389.547 254.448L361.548 260.046V311.85C361.548 329.004 347.193 342.999 328.644 342.999H314.298V403.2H360.495V342.999H374.85C393.399 342.999 407.754 329.346 407.754 311.85V260.046L435.744 254.448C441.684 253.395 444.843 246.401 441.693 241.146L368.199 100.8H322.344ZM643.302 100.8C714.006 100.8 756.009 139.302 755.649 203.697C755.649 267.399 709.452 306.954 634.905 306.954H622.998V403.2H563.499V100.8H643.302ZM884.448 100.8C941.157 100.8 976.149 130.546 976.149 178.146C976.149 205.803 966.357 226.449 946.053 240.453C976.851 249.903 996.102 276.849 995.751 311.499C995.751 355.599 962.154 403.2 888.3 403.2H792.054V100.8H884.448ZM851.553 273.69V352.44H883.755C919.449 352.44 937.305 339.138 937.305 312.894C937.304 288.387 919.448 273.69 889.353 273.69H851.553ZM622.998 151.2V255.843H640.845C677.25 255.843 697.905 236.601 697.905 202.653C697.905 171.495 675.504 151.2 640.503 151.2H622.998ZM246.06 175.698C253.663 175.731 260.946 178.766 266.321 184.144C271.697 189.521 274.73 196.805 274.761 204.408C274.725 212.01 271.688 219.29 266.312 224.663C260.935 230.037 253.661 233.069 246.06 233.1C238.456 233.069 231.173 230.036 225.796 224.66C220.419 219.285 217.383 212.002 217.35 204.398C217.383 196.795 220.419 189.513 225.796 184.138C231.173 178.762 238.456 175.729 246.06 175.698ZM879.903 152.253H851.553V226.449H876.753C901.953 226.449 918.405 211.752 918.405 189C918.405 166.248 903.357 151.893 879.903 151.893V152.253Z" fill="white"/>
</svg>
