<svg width="325" height="154" viewBox="0 0 325 154" fill="none" xmlns="http://www.w3.org/2000/svg">
<path d="M162 13.039C164.254 13.039 166.282 11.2417 166.282 8.77047C166.282 6.52386 164.479 4.50191 162 4.50191C159.746 4.50191 157.718 6.2992 157.718 8.77047C157.718 11.2417 159.521 13.039 162 13.039ZM162 97.7363C159.746 97.7363 157.718 99.5336 157.718 102.005C157.718 104.251 159.521 106.273 162 106.273C164.254 106.273 166.282 104.476 166.282 102.005C166.282 99.7583 164.254 97.7363 162 97.7363ZM122.563 74.5962C121.437 74.3715 120.31 74.3715 119.408 75.0455C118.507 75.7195 117.831 76.6181 117.38 77.5168C117.155 78.6401 117.155 79.7634 117.831 80.6621C118.732 82.01 120.085 82.684 121.437 82.684C122.113 82.684 122.789 82.4593 123.465 82.01C124.366 81.336 125.268 80.4374 125.493 79.5387C125.718 78.4154 125.718 77.2921 125.042 76.3935C124.592 75.4948 123.69 74.8209 122.563 74.5962ZM203.465 28.0913C202.338 27.8667 201.211 27.8667 200.31 28.5407C198.282 29.664 197.606 32.3599 198.732 34.3818C199.408 35.2805 200.31 35.9545 201.211 36.4038C201.662 36.4038 201.887 36.6285 202.338 36.6285C203.014 36.6285 203.69 36.4038 204.366 35.9545C205.268 35.2805 206.169 34.3818 206.394 33.4832C206.62 32.3599 206.62 31.2366 205.944 30.3379C205.493 28.99 204.592 28.316 203.465 28.0913ZM204.592 75.0455C203.69 74.3715 202.563 74.3715 201.437 74.5962C200.761 74.8209 200.085 75.2702 199.634 75.7195L191.972 71.2263C192.423 70.103 192.423 68.9797 192.197 67.8564C191.746 66.2837 190.845 65.1604 189.493 64.2618C186.563 62.6892 182.958 63.5878 181.38 66.5084C180.479 67.8564 180.479 69.429 180.704 71.0016C180.704 71.2263 180.704 71.2263 180.93 71.4509L166.732 79.5387C165.606 78.1908 164.028 77.5168 162.225 77.5168C160.423 77.5168 158.845 78.4154 157.718 79.5387L143.521 71.4509C143.521 71.2263 143.521 71.2263 143.746 71.0016C144.197 69.429 143.972 67.8564 143.07 66.5084C142.169 65.1604 141.042 64.2618 139.465 63.8125C139.239 63.8125 139.239 63.8125 139.014 63.8125V47.4122C139.239 47.4122 139.239 47.4122 139.465 47.4122C141.042 46.9629 142.169 46.0642 143.07 44.7163C143.972 43.3683 143.972 41.7957 143.746 40.223C143.746 39.9984 143.746 39.9984 143.521 39.7737L157.718 31.6859C158.845 33.0339 160.423 33.7079 162.225 33.7079C165.606 33.7079 168.085 31.0119 168.085 27.8667C168.085 24.7214 165.38 22.0255 162.225 22.0255C159.07 22.0255 156.366 24.7214 156.366 27.8667C156.366 28.5407 156.592 29.2146 156.817 29.8886L142.62 37.9764C142.169 37.5271 141.718 37.0778 141.042 36.6285C139.69 35.7298 138.113 35.7298 136.535 35.9545C134.958 36.4038 133.831 37.3024 132.93 38.6504C131.352 41.571 132.254 45.1656 135.183 46.7382C135.859 46.9629 136.31 47.1875 136.986 47.4122V63.8125C136.31 64.0371 135.634 64.0371 135.183 64.4864C133.831 65.3851 132.93 66.5084 132.479 68.081C132.028 69.6537 132.254 71.2263 133.155 72.5743C134.056 73.9222 135.183 74.8209 136.761 75.2702C137.211 75.4948 137.887 75.4948 138.338 75.4948C139.465 75.4948 140.366 75.2702 141.268 74.5962C141.944 74.3715 142.394 73.9222 142.845 73.2482L157.042 81.336C156.817 82.01 156.592 82.684 156.592 83.358C156.592 86.7279 159.296 89.1992 162.451 89.1992C165.606 89.1992 168.31 86.5032 168.31 83.358C168.31 82.684 168.085 82.01 167.859 81.336L182.056 73.2482C182.507 73.6976 182.958 74.1469 183.634 74.5962C184.535 75.0455 185.662 75.4948 186.563 75.4948C188.141 75.4948 189.944 74.8209 191.07 73.4729L198.732 77.9661C198.507 78.6401 198.507 79.3141 198.732 80.2127C198.958 81.336 199.634 82.2347 200.761 82.684C201.437 83.1333 202.113 83.358 202.789 83.358C203.239 83.358 203.465 83.358 203.915 83.1333C205.042 82.9087 205.944 82.2347 206.394 81.1114C207.07 80.2127 207.07 79.0894 206.845 77.9661C206.169 76.6181 205.493 75.4948 204.592 75.0455ZM119.408 35.7298C120.085 36.1791 120.761 36.4038 121.437 36.4038C121.887 36.4038 122.113 36.4038 122.563 36.1791C123.69 35.9545 124.592 35.2805 125.042 34.1572C126.169 32.1352 125.493 29.4393 123.465 28.316C121.437 27.1927 118.732 27.8667 117.606 29.8886C116.93 30.7873 116.93 31.9106 117.155 33.0339C117.606 34.3818 118.282 35.2805 119.408 35.7298ZM133.38 6.07454C134.958 5.1759 135.408 3.15394 134.507 1.58132C133.606 0.00868808 131.577 -0.440634 130 0.45801C128.423 1.35666 127.972 3.37861 128.873 4.95123C129.775 6.2992 131.803 6.97318 133.38 6.07454ZM190.62 104.925C189.042 105.824 188.592 107.846 189.493 109.419C190.394 110.991 192.423 111.441 194 110.542C195.577 109.643 196.028 107.621 195.127 106.049C194.225 104.476 192.197 104.027 190.62 104.925ZM133.38 104.925C131.803 104.027 129.775 104.476 128.873 106.049C127.972 107.621 128.423 109.643 130 110.542C131.577 111.441 133.606 110.991 134.507 109.419C135.408 107.846 134.958 105.824 133.38 104.925ZM190.62 6.07454C192.197 6.97318 194.225 6.52386 195.127 4.95123C196.028 3.37861 195.577 1.35666 194 0.45801C192.423 -0.440634 190.394 0.00868808 189.493 1.58132C188.366 2.92928 189.042 4.95123 190.62 6.07454ZM222.62 52.1301C220.817 52.1301 219.239 53.7027 219.239 55.5C219.239 57.2973 220.817 58.8699 222.62 58.8699C224.423 58.8699 226 57.2973 226 55.5C225.775 53.7027 224.423 52.1301 222.62 52.1301ZM101.38 52.1301C99.5775 52.1301 98 53.7027 98 55.5C98 57.2973 99.5775 58.8699 101.38 58.8699C103.183 58.8699 104.761 57.2973 104.761 55.5C104.535 53.7027 103.183 52.1301 101.38 52.1301ZM186.113 47.4122C187.014 47.4122 188.141 47.1875 189.042 46.5136C191.972 44.9409 192.873 41.3463 191.296 38.4258C189.718 35.5052 186.113 34.6065 183.183 36.1791C181.831 37.0778 180.93 38.2011 180.479 39.7737C180.028 41.3463 180.254 42.919 181.155 44.2669C182.056 46.2889 184.085 47.4122 186.113 47.4122Z" fill="white"/>
<path d="M275.495 130.264C275.495 131.509 274.476 132.301 273.231 132.301C272.213 132.301 271.194 131.509 271.194 130.264C271.194 128.905 272.1 128 273.345 128C274.703 128 275.495 128.905 275.495 130.264ZM21.5054 146.902C22.1845 145.431 22.4109 143.959 22.4109 142.148C22.4109 138.866 21.279 136.263 19.1285 134.112C16.9779 131.962 14.3746 130.943 11.2054 130.943C8.03622 130.943 5.43294 131.962 3.2824 134.112C1.13186 136.263 0 138.866 0 142.148C0 145.431 1.13186 148.034 3.2824 150.184C5.43294 152.335 8.03622 153.354 11.2054 153.354C14.2615 153.354 16.7516 152.335 18.9021 150.411L21.8449 152.335L24.335 148.6L21.5054 146.902ZM17.6571 144.412L15.0538 142.714L12.5637 146.449L15.167 148.147C14.0351 148.939 12.79 149.392 11.2054 149.392C9.16809 149.392 7.58348 148.713 6.33843 147.468C5.09338 146.11 4.52745 144.412 4.52745 142.261C4.52745 140.111 5.09338 138.413 6.33843 137.055C7.58348 135.697 9.16809 135.131 11.2054 135.131C13.2428 135.131 14.8274 135.81 16.0724 137.055C17.3175 138.3 17.8834 140.111 17.8834 142.261C17.8834 142.941 17.7702 143.733 17.6571 144.412ZM41.5393 145.317C41.5393 146.676 41.1998 147.694 40.5207 148.487C39.8415 149.166 38.8229 149.619 37.691 149.619C36.5591 149.619 35.5405 149.279 34.8613 148.487C34.1822 147.808 33.8427 146.676 33.8427 145.317V135.697H29.4284V145.883C29.4284 148.147 30.1075 150.071 31.3526 151.316C32.5976 152.675 34.1822 153.241 36.2196 153.241C38.7097 153.241 40.2943 152.788 41.6525 151.316V153.014H46.0668V135.81H41.6525V145.317H41.5393ZM88.0589 135.81C85.5688 135.81 83.9842 136.263 82.6259 137.734V136.036H78.2117V153.467H82.6259V143.846C82.6259 142.488 82.9655 141.469 83.6446 140.677C84.3237 139.998 85.3424 139.545 86.4743 139.545C87.7193 139.545 88.6248 139.885 89.3039 140.677C89.983 141.356 90.3226 142.488 90.3226 143.846V153.467H94.7368V143.28C94.7368 141.016 94.0577 139.092 92.8127 137.847C91.5676 136.489 89.983 135.81 88.0589 135.81ZM65.9875 135.81V137.508C65.0821 136.602 62.9315 135.583 60.5546 135.583C58.1777 135.583 56.2535 136.376 54.6689 138.074C53.0843 139.771 52.292 141.922 52.292 144.525C52.292 147.128 53.0843 149.279 54.6689 150.977C56.2535 152.675 58.1777 153.467 60.5546 153.467C62.026 153.467 63.9502 153.241 65.9875 151.656V153.241H70.4018V135.81H65.9875ZM64.6293 148.26C63.7238 149.166 62.592 149.619 61.4601 149.619C60.2151 149.619 59.1964 149.166 58.2909 148.26C57.3854 147.355 56.9327 146.11 56.9327 144.525C56.9327 142.941 57.3854 141.696 58.2909 140.79C59.1964 139.885 60.3283 139.432 61.4601 139.432C62.7052 139.432 63.7238 139.885 64.7425 140.79C65.648 141.696 66.1007 142.941 66.1007 144.525C65.9876 146.11 65.5348 147.355 64.6293 148.26ZM128.58 135.81V137.508C127.674 136.602 125.523 135.583 123.147 135.583C120.77 135.583 118.846 136.376 117.261 138.074C115.676 139.771 114.884 141.922 114.884 144.525C114.884 147.128 115.676 149.279 117.261 150.977C118.846 152.675 120.77 153.467 123.147 153.467C124.618 153.467 126.542 153.241 128.58 151.656V153.241H132.994V135.81H128.58ZM127.221 148.26C126.316 149.166 125.184 149.619 124.052 149.619C122.807 149.619 121.788 149.166 120.883 148.26C119.977 147.355 119.525 146.11 119.525 144.525C119.525 142.941 119.977 141.696 120.883 140.79C121.675 139.771 122.807 139.319 123.939 139.319C125.184 139.319 126.203 139.771 127.221 140.677C128.127 141.582 128.58 142.827 128.58 144.412C128.58 146.11 128.127 147.355 127.221 148.26ZM107.414 149.505C106.169 149.505 105.263 148.713 105.263 147.128V139.885H109.904V136.263H105.263V131.735H101.075V136.263V139.885V147.128C101.075 151.316 103.452 153.354 107.074 153.241C108.319 153.241 109.338 153.014 110.47 152.561L109.338 149.053C108.772 149.392 107.98 149.505 107.414 149.505Z" fill="white"/>
<path d="M171.817 152.335L171.703 153.467C170.458 153.467 168.987 153.354 167.289 153.354C165.591 153.354 164.233 153.467 163.215 153.467V152.335C165.025 152.222 165.478 151.996 165.478 151.316C165.591 150.411 165.591 148.6 165.591 145.544C165.591 140.564 165.591 139.998 165.252 139.432C164.799 138.413 163.894 137.847 162.535 137.847C160.724 137.847 159.14 138.979 158.348 140.451C158.121 141.017 157.895 141.469 157.895 142.148V147.468C157.895 148.94 157.895 150.411 158.008 151.316C158.008 152.109 158.461 152.335 160.498 152.335L160.385 153.467C159.366 153.467 157.555 153.354 155.971 153.354C154.386 153.354 153.028 153.467 152.009 153.467V152.335C153.82 152.222 154.273 152.109 154.273 151.203C154.386 149.958 154.386 148.713 154.386 146.223V143.054C154.386 140.337 154.386 139.885 154.16 139.319C153.707 138.3 152.915 137.847 151.556 137.847C149.859 137.847 148.161 138.866 147.255 140.564C146.916 141.243 146.803 141.582 146.803 142.488V147.695C146.803 149.279 146.803 150.524 146.916 151.43C147.029 152.222 147.368 152.335 149.293 152.448L149.179 153.467C148.274 153.467 146.35 153.354 144.878 153.354C143.407 153.354 141.935 153.467 140.69 153.467V152.335C142.728 152.335 143.067 152.109 143.067 151.203C143.067 150.185 143.181 148.6 143.181 146.449V143.167C143.181 141.017 143.181 139.319 143.067 138.3C143.067 137.734 142.728 137.621 140.577 137.621L140.69 136.602C142.615 136.602 144.765 136.376 146.576 136.036C146.689 136.715 146.803 138.526 146.803 139.092C148.274 137.621 150.424 135.81 153.254 135.81C155.518 135.81 156.537 136.715 157.102 137.508C157.442 137.961 157.668 138.526 157.782 138.979C159.14 137.621 161.177 135.81 164.233 135.81C166.61 135.81 167.968 137.055 168.534 138.074C168.987 138.866 169.1 139.771 169.1 140.677V151.316C169.213 152.109 169.44 152.222 171.817 152.335ZM194.567 149.505L195.586 149.958C195.02 152.788 193.435 153.807 191.624 153.807C189.587 153.807 188.795 152.562 188.568 150.864C186.87 152.788 184.72 153.807 182.909 153.807C179.853 153.807 178.042 151.656 178.042 148.94C178.042 147.355 178.721 145.997 180.306 145.318C183.022 144.186 187.097 142.941 188.681 141.809V140.224C188.681 138.526 187.889 136.829 185.625 136.829C183.248 136.829 182.23 138.074 182.23 139.658C182.23 140.111 182.343 140.564 182.343 140.903C182.456 141.243 182.23 141.582 182.003 141.696C181.664 141.922 181.211 142.148 180.645 142.148C179.74 142.148 178.947 141.696 178.947 140.337C178.947 138.3 181.89 135.697 186.191 135.697C189.587 135.697 191.058 137.168 191.511 137.961C191.851 138.526 192.077 139.319 192.077 139.998V150.071C192.077 151.543 192.53 151.769 192.982 151.769C193.548 151.882 194.114 151.09 194.567 149.505ZM188.455 143.054C187.323 143.62 185.286 144.525 183.814 145.318C182.569 145.997 181.777 146.563 181.777 148.374C181.777 150.298 182.796 151.769 184.607 151.769C186.531 151.769 187.663 150.637 188.342 149.166C188.455 148.713 188.568 148.034 188.568 147.468V143.054H188.455ZM214.261 145.091C212.79 145.091 211.092 144.978 210.074 144.978V145.997L211.771 146.11C213.13 146.223 213.356 146.449 213.356 147.581C213.356 148.713 213.356 150.298 213.243 151.203C213.13 152.109 211.998 152.675 210.413 152.675C208.715 152.675 207.244 152.109 206.112 150.637C205.093 149.392 204.641 147.129 204.641 144.865C204.641 142.375 205.207 140.451 206.225 139.092C207.131 137.734 208.489 137.055 210.187 137.055C213.13 137.055 214.827 138.979 215.167 142.714H216.186C216.072 140.337 216.412 137.281 216.638 136.263L215.733 135.923L215.167 137.395C214.601 136.829 213.13 135.81 210.3 135.81C208.489 135.81 206.904 136.15 205.546 136.942C202.83 138.413 201.245 141.356 201.245 144.865C201.245 147.581 201.924 149.619 203.169 151.09C204.527 152.788 206.791 153.693 210.074 153.693C211.432 153.693 212.903 153.354 214.148 153.014C215.28 152.675 216.186 152.335 216.865 152.222C216.752 151.656 216.638 150.751 216.638 149.392C216.638 148.6 216.638 147.468 216.752 146.789C216.752 146.223 217.091 146.11 218.449 145.884V144.865C217.204 145.091 215.733 145.091 214.261 145.091ZM240.973 149.505L241.992 149.958C241.426 152.788 239.842 153.807 238.031 153.807C235.993 153.807 235.201 152.562 234.975 150.864C233.277 152.788 231.126 153.807 229.315 153.807C226.259 153.807 224.448 151.656 224.448 148.94C224.448 147.355 225.127 145.997 226.712 145.318C229.428 144.186 233.503 142.941 235.088 141.809V140.224C235.088 138.526 234.295 136.829 232.032 136.829C229.655 136.829 228.636 138.074 228.636 139.658C228.636 140.111 228.749 140.564 228.749 140.903C228.862 141.243 228.636 141.582 228.41 141.696C228.07 141.922 227.617 142.148 227.052 142.148C226.146 142.148 225.354 141.696 225.354 140.337C225.354 138.3 228.297 135.697 232.598 135.697C235.993 135.697 237.465 137.168 237.917 137.961C238.257 138.526 238.483 139.319 238.483 139.998V150.071C238.483 151.543 238.936 151.769 239.389 151.769C239.955 151.882 240.521 151.09 240.973 149.505ZM234.861 143.054C233.729 143.62 231.692 144.525 230.221 145.318C228.976 145.997 228.183 146.563 228.183 148.374C228.183 150.298 229.202 151.769 231.013 151.769C232.937 151.769 234.069 150.637 234.748 149.166C234.861 148.713 234.975 148.034 234.975 147.468V143.054H234.861ZM258.744 151.769C257.612 151.996 255.574 152.109 252.405 152.109C254.443 148.94 260.441 139.885 261.347 138.526C261.8 137.734 262.252 136.942 262.366 136.15C260.781 136.15 259.423 136.263 256.367 136.263H252.971C250.707 136.263 249.349 136.15 248.67 135.81C248.67 138.187 248.444 140.79 248.217 142.375L249.236 142.148C249.462 141.243 249.689 140.224 250.028 139.206C250.481 137.961 251.047 137.621 252.745 137.508C254.329 137.395 256.027 137.395 257.725 137.395C256.706 139.432 251.839 147.355 247.538 152.562L247.991 153.354C248.67 153.354 249.915 153.241 252.179 153.241C256.48 153.241 261.007 153.354 262.479 153.467C262.592 151.656 262.932 148.6 263.158 146.902L262.139 146.676C261.234 150.637 260.328 151.656 258.744 151.769ZM275.495 151.203C275.495 150.411 275.382 149.053 275.382 146.563V141.922C275.382 138.979 275.495 136.715 275.495 135.81C273.684 136.263 271.081 136.376 269.157 136.489V137.508C271.307 137.395 271.647 137.508 271.647 138.074C271.647 138.64 271.76 139.998 271.76 142.148V146.563C271.76 148.826 271.647 150.524 271.647 151.203C271.647 151.882 271.307 152.222 268.93 152.335V153.467C270.175 153.467 271.307 153.354 273.231 153.354C275.156 153.354 276.627 153.467 277.759 153.467V152.335C275.948 152.222 275.495 152.109 275.495 151.203ZM301.528 151.203V140.677C301.528 139.771 301.415 138.866 300.962 138.187C300.396 136.942 299.038 135.81 296.435 135.81C293.605 135.81 291.681 137.508 290.209 138.866C290.209 138.3 290.096 136.715 289.983 135.923C288.172 136.263 286.135 136.489 284.211 136.489L284.097 137.508C286.135 137.508 286.474 137.621 286.474 138.187C286.587 139.206 286.587 140.903 286.587 143.054V146.563C286.587 148.487 286.474 149.958 286.474 151.09C286.474 151.996 286.135 152.109 284.097 152.222V153.354C285.229 153.354 286.587 153.241 288.285 153.241C289.757 153.241 291.681 153.354 292.7 153.354L292.813 152.222C290.775 152.109 290.436 151.996 290.436 151.203C290.323 150.298 290.323 148.713 290.323 147.015V142.375C290.323 141.469 290.436 140.903 290.775 140.337C291.681 138.753 293.152 137.847 295.076 137.847C296.435 137.847 297.227 138.413 297.793 139.319C298.132 139.998 298.246 140.451 298.246 145.431C298.246 148.6 298.132 150.411 298.132 151.203C298.019 151.996 297.68 152.109 295.869 152.222V153.354C296.774 153.354 298.132 153.241 299.943 153.241C301.641 153.241 303.113 153.354 304.358 153.354L304.471 152.222C301.754 152.222 301.528 152.109 301.528 151.203ZM323.713 148.147L324.731 148.713C323.486 152.335 320.996 153.807 317.6 153.807C314.544 153.807 312.62 152.901 311.262 151.09C310.243 149.732 309.564 147.468 309.564 145.091C309.564 140.111 312.394 135.697 317.94 135.697C323.713 135.697 324.731 140.224 324.731 142.601C324.731 143.393 324.505 143.959 323.939 144.186C323.26 144.412 321.336 144.638 318.732 144.752C317.374 144.752 315.224 144.752 313.526 144.752C313.413 146.902 313.979 148.826 314.771 149.958C315.676 151.316 316.921 151.996 318.732 151.996C321.222 151.996 322.694 150.864 323.713 148.147ZM313.639 143.507H316.921C318.846 143.507 319.864 143.393 320.43 143.28C320.996 143.167 321.222 142.714 321.222 141.922C321.222 139.771 320.317 136.942 317.714 136.942C314.997 136.942 313.752 140.224 313.639 143.507Z" fill="white"/>
</svg>
