<svg focusable="false" aria-hidden="true" viewBox="0 0 330 50" xmlns="http://www.w3.org/2000/svg"><path fill="#fff" d="m314.4 47.35c5.78 0 10.6-3.25 10.6-8.85 0-4.52-2.35-6.87-9.58-10.24-6.63-3.13-8.49-4.52-8.49-7.41 0-2.59 2.35-4.28 5.18-4.28 4.4 0 8.61 3.85 10.66 9.52h.72l-1.45-10.54h-.54c-.12 2.83-3.73.12-9.22.12-5.06 0-9.64 3.55-9.64 8.31 0 4.28 2.17 6.38 8.61 9.34 5.96 2.83 8.61 4.82 8.61 8.07s-2.71 5-5.36 5c-3.73 0-9.03-3.79-11.62-10.6h-.78l1.87 11.26h.48c.36-3.55 4.16.3 9.94.3m-37.69-25.54 2.11 5.96-5.24 13.19-7.05-19.15c-1.45-3.85-1.02-4.46 1.14-4.58v-.78h-11.44v.78c1.87.18 3.01 1.57 4.52 5.78l8.85 24.21c1.51-1.08 3.25-1.69 4.94-2.17-.48-2.17.24-4.64 2.05-9.03l2.71-6.81 6.32 18.01c1.45-.72 3.31-1.39 4.88-1.87-.54-2.17.18-4.58 1.87-8.97l5.36-13.67c1.57-3.98 3.25-5.3 5.3-5.48v-.78h-10.24v.78c3.13.12 4.76 1.81 3.37 5.66l-6.63 18.25-6.75-18.91c-1.26-3.61-.48-4.94 2.29-5v-.78h-11.62v.78c1.02.12 2.05 1.33 3.25 4.58m-39.93 5.72c0-6.44 3.25-10.78 7.41-10.78 3.85 0 6.32 3.49 6.32 7.77 0 2.17-.72 2.71-4.28 3.25l-9.4 1.63-.06-1.87zm8.56 19.82c5.72 0 10.3-3.79 12.17-9.58l-.36-.18c-1.69 3.43-5 5.42-8.73 5.42-6.93 0-10.72-5.96-11.5-12.83l20.12-2.65c-.24-8.07-5.36-11.87-11.81-11.87-8.13 0-14.03 6.69-14.03 15.66s6.14 16.02 14.15 16.02m-23.38.25c1.02-.84 3.67-2.11 5.84-2.71-.96-1.87-1.39-3.98-1.33-6.93l.36-28.91c0-3.67 1.69-4.88 5.3-5.06v-.78h-13.13v.78c4.46.18 6.44 1.39 6.44 5l-.06 31.26-23.66-37.04h-11.68v.78c3.91.18 5.66 1.39 5.6 5l-.3 31.74c-.06 3.67-1.87 4.88-5.96 5.06v.78h13.67v-.78c-4.22-.18-6.08-1.39-6.14-5l-.24-32.83 25.3 39.63zm-52.4-20.06c0-6.44 3.25-10.78 7.41-10.78 3.85 0 6.32 3.49 6.32 7.77 0 2.17-.72 2.71-4.28 3.25l-9.4 1.63-.06-1.87zm8.55 19.82c5.72 0 10.3-3.79 12.17-9.58l-.36-.18c-1.69 3.43-5 5.42-8.73 5.42-6.93 0-10.72-5.96-11.5-12.83l20.12-2.65c-.24-8.07-5.36-11.87-11.81-11.87-8.13 0-14.03 6.69-14.03 15.66s6.14 16.02 14.15 16.02m-27.72.01c5.84 0 10.72-3.61 12.65-9.4l-.54-.3c-1.99 4.16-5.9 5.3-8.79 5.3-6.5 0-11.26-5.6-11.26-14.82 0-6.87 3.49-11.44 8.55-11.44 4.04 0 5.66 2.53 5.66 4.58 0 1.69-.84 2.77-.84 4.28 0 1.93 1.26 3.07 3.01 3.07s3.25-1.51 3.25-4.28c0-4.16-4.04-8.67-10.72-8.67-8.37 0-14.58 7.17-14.58 16.14s5.54 15.54 13.61 15.54m-26.8-.79h13.19v-.78c-2.47-.18-3.73-1.14-3.73-3.98v-17.17c0-6.14-2.95-8.97-7.53-8.97s-8.73 3.07-11.26 8.19h-.3l.72-8.19h-.24l-9.82 2.71.12.78c3.07-.54 3.85.96 3.85 3.73v18.61c0 3.13-1.08 4.16-3.73 4.28v.78h13.61v-.78c-2.65-.18-3.91-1.14-3.91-3.98v-16.62c2.29-4.34 5.48-5.72 7.53-5.72 3.01 0 5 1.93 5 6.63v15.42c0 3.13-1.02 4.16-3.49 4.28v.78zm-39.57-19.03c0-6.44 3.25-10.78 7.41-10.78 3.85 0 6.32 3.49 6.32 7.77 0 2.17-.72 2.71-4.28 3.25l-9.4 1.63-.06-1.87zm8.55 19.82c5.72 0 10.3-3.79 12.17-9.58l-.36-.18c-1.69 3.43-5 5.42-8.73 5.42-6.93 0-10.72-5.96-11.5-12.83l20.12-2.65c-.24-8.07-5.36-11.87-11.81-11.87-8.13 0-14.03 6.69-14.03 15.66s6.14 16.02 14.15 16.02m-21.39-36.49c2.11 0 3.85-1.69 3.85-3.73s-1.75-3.85-3.85-3.85c-1.99 0-3.79 1.75-3.79 3.85s1.75 3.73 3.79 3.73m-6.32 35.71h13.25v-.78c-2.41-.18-3.55-1.14-3.55-3.98v-26.14h-.24l-9.64 2.71v.78c2.95-.3 3.91 1.02 3.91 3.91v18.43c0 3.13-1.08 4.16-3.73 4.28v.78zm-13.01.79c5.84 0 10.72-3.61 12.65-9.4l-.54-.3c-1.99 4.16-5.9 5.3-8.79 5.3-6.5 0-11.26-5.6-11.26-14.82 0-6.87 3.49-11.44 8.55-11.44 4.04 0 5.66 2.53 5.66 4.58 0 1.69-.84 2.77-.84 4.28 0 1.93 1.26 3.07 3.01 3.07s3.25-1.51 3.25-4.28c0-4.16-4.04-8.67-10.72-8.67-8.37 0-14.58 7.17-14.58 16.14s5.54 15.54 13.61 15.54m-30.84 0c7.83 0 14.09-4.82 14.09-12.41 0-6.44-3.19-9.52-12.41-13.73-8.55-3.98-11.87-6.63-11.87-10.96 0-3.98 3.19-6.87 7.89-6.87 5.42 0 11.87 4.46 14.15 13.73h.78l-1.14-14.21h-.72c-.06 1.51-.6 2.05-1.51 2.05-1.87 0-6.32-2.53-11.38-2.53-8.13 0-12.89 5.54-12.89 11.62s3.37 9.22 11.32 12.83c9.4 4.4 12.77 6.63 12.77 11.56s-4.16 7.95-8.85 7.95c-5.84 0-13.37-6.87-15.48-16.32h-.78l1.63 16.68h.72c.06-1.87.66-2.47 1.81-2.47 2.23 0 6.38 3.07 11.87 3.07"></path><path d="m5 2.41h320v45.17h-320z" fill="none"></path></svg>
