<svg width="513" height="1027" viewBox="0 0 513 1027" fill="none" xmlns="http://www.w3.org/2000/svg">
<g clip-path="url(#clip0_947_870)">
<mask id="mask0_947_870" style="mask-type:luminance" maskUnits="userSpaceOnUse" x="0" y="0" width="513" height="1027">
<path d="M513 0H0V1027H513V0Z" fill="white"/>
</mask>
<g mask="url(#mask0_947_870)">
<path d="M774.061 513.525L1019.47 267.665C1023.45 263.677 1025.7 258.256 1025.7 252.613C1025.7 246.97 1023.45 241.55 1019.47 237.561L789.086 6.75384C785.105 2.76037 779.694 0.514812 774.061 0.514812C768.429 0.514812 763.018 2.76037 759.037 6.75384L513.63 252.613L513.092 252.074L267.685 6.23903C263.704 2.24556 258.293 0 252.66 0C247.027 0 241.617 2.24556 237.636 6.23903L7.25343 237.046C3.26731 241.035 1.02588 246.455 1.02588 252.098C1.02588 257.742 3.26731 263.162 7.25343 267.15L253.174 513.525L7.25343 759.899C3.26731 763.887 1.02588 769.307 1.02588 774.951C1.02588 780.594 3.26731 786.014 7.25343 790.003L237.636 1020.76C241.617 1024.75 247.027 1027 252.66 1027C258.293 1027 263.704 1024.75 267.685 1020.76L441.273 846.853C441.273 846.853 446.877 740.164 321.836 582.338L513.581 774.411L759.037 1020.3C763.018 1024.29 768.429 1026.53 774.061 1026.53C779.694 1026.53 785.105 1024.29 789.086 1020.3L1019.47 789.488C1023.45 785.499 1025.7 780.079 1025.7 774.436C1025.7 768.793 1023.45 763.372 1019.47 759.384L774.061 513.525Z" fill="#003A57" fill-opacity="0.6"/>
</g>
</g>
<defs>
<clipPath id="clip0_947_870">
<rect width="513" height="1027" fill="white"/>
</clipPath>
</defs>
</svg>
