<svg width="21" height="16" viewBox="0 0 21 16" fill="none" xmlns="http://www.w3.org/2000/svg">
<g clip-path="url(#clip0_2309_23099)">
<path d="M4.656 0C6 0 7.104 0.432 7.968 1.296C8.832 2.128 9.264 3.232 9.264 4.608C9.264 5.248 9.184 5.888 9.024 6.528C8.864 7.168 8.528 8.128 8.016 9.408L5.232 16.32H0.48L2.544 8.736C1.744 8.384 1.12 7.856 0.671999 7.152C0.223999 6.448 0 5.6 0 4.608C0 3.232 0.431999 2.128 1.296 1.296C2.192 0.432 3.312 0 4.656 0ZM15.984 0C17.328 0 18.432 0.432 19.296 1.296C20.16 2.128 20.592 3.232 20.592 4.608C20.592 5.248 20.512 5.888 20.352 6.528C20.192 7.168 19.856 8.128 19.344 9.408L16.56 16.32H11.808L13.872 8.736C13.072 8.384 12.448 7.856 12 7.152C11.552 6.448 11.328 5.6 11.328 4.608C11.328 3.232 11.76 2.128 12.624 1.296C13.52 0.432 14.64 0 15.984 0Z" fill="black"/>
</g>
<defs>
<clipPath id="clip0_2309_23099">
<rect width="21" height="16" fill="white"/>
</clipPath>
</defs>
</svg>
