<svg width="400" height="400" viewBox="0 0 400 400" fill="none" xmlns="http://www.w3.org/2000/svg">
<g clip-path="url(#clip0_2316_23125)">
<rect width="400" height="400" fill="white"/>
<path d="M586.113 198.019L770.91 13.0136C773.912 10.0123 775.6 5.93365 775.6 1.68715C775.6 -2.55935 773.912 -6.63798 770.91 -9.63931L597.427 -183.318C594.429 -186.323 590.355 -188.013 586.113 -188.013C581.872 -188.013 577.798 -186.323 574.8 -183.318L390.003 1.68715L389.597 1.28132L204.8 -183.705C201.802 -186.71 197.728 -188.4 193.487 -188.4C189.245 -188.4 185.171 -186.71 182.173 -183.705L8.68949 -10.0267C5.68785 -7.02536 4 -2.94674 4 1.29976C4 5.54625 5.68785 9.62489 8.68949 12.6262L193.873 198.019L8.68949 383.411C5.68785 386.412 4 390.491 4 394.737C4 398.984 5.68785 403.062 8.68949 406.064L182.173 579.705C185.171 582.71 189.245 584.4 193.487 584.4C197.728 584.4 201.802 582.71 204.8 579.705L335.516 448.842C335.516 448.842 339.736 368.561 245.578 249.799L389.966 394.331L574.8 579.355C577.798 582.36 581.872 584.05 586.113 584.05C590.355 584.05 594.429 582.36 597.427 579.355L770.91 405.676C773.912 402.675 775.6 398.596 775.6 394.35C775.6 390.103 773.912 386.025 770.91 383.023L586.113 198.019Z" fill="black"/>
</g>
<defs>
<clipPath id="clip0_2316_23125">
<rect width="400" height="400" fill="white"/>
</clipPath>
</defs>
</svg>
